<svg width="472" height="269" viewBox="0 0 472 269" fill="none" xmlns="http://www.w3.org/2000/svg">
<rect y="0.977051" width="472" height="268" rx="20" fill="#F33E33"/>
<g clip-path="url(#clip0_64_190)">
<path d="M153.745 66.442C140.946 66.8451 128.937 69.9718 118.044 76.9059C116.569 77.845 115.459 79.1985 114.203 80.3869C113.646 80.9132 113.094 81.8806 112.136 81.1452C111.261 80.4727 111.501 79.5587 111.938 78.6918C113.401 75.7924 115.699 73.6084 118.203 71.6614C126.13 65.4933 135.345 62.3995 145.097 60.6857C157.546 58.4976 169.5 60.3205 181.044 65.2769C181.445 65.4495 181.858 65.8836 182.273 65.5275C182.86 65.0254 182.225 64.5908 182.038 64.1507C180.552 60.6355 177.849 57.9616 175.651 54.939C174.792 53.758 173.14 52.3637 174.657 51.1197C176.046 49.9784 177.119 51.8757 178.052 52.8408C181.722 56.6382 184.43 61.1997 187.803 65.2409C189.538 67.3194 188.683 69.7522 186.199 70.7492C182.634 72.18 178.844 72.3375 175.115 72.7228C167.632 73.4961 160.229 74.9118 152.707 75.3619C150.82 75.4747 148.944 75.534 147.06 75.4633C146.453 75.4405 145.752 75.4281 145.584 74.7027C145.392 73.87 146.034 73.5491 146.691 73.2587C150.607 71.5299 154.852 71.3085 158.979 70.5497C161.049 70.169 163.148 69.9321 165.199 69.4824C165.9 69.329 167.193 69.4226 167.06 68.3164C166.956 67.4308 165.812 67.4417 165.004 67.3057C161.279 66.7235 157.515 66.4347 153.745 66.442Z" fill="#312F2F"/>
<circle cx="232.5" cy="63.5" r="22.5" fill="#FCEDED"/>
<path d="M225.015 64.4749C225.018 64.5427 225.008 64.6104 224.984 64.674C224.961 64.7376 224.924 64.7957 224.878 64.8448C224.831 64.8939 224.775 64.933 224.712 64.9596C224.65 64.9863 224.583 65 224.515 64.9999H219C218.774 65.0003 218.555 64.9243 218.378 64.7842C218.201 64.6442 218.077 64.4484 218.025 64.2287C217.993 64.0783 217.994 63.9227 218.029 63.7729C218.064 63.6232 218.132 63.483 218.228 63.3624C219.11 62.1924 220.28 61.2712 221.625 60.6887C221.035 60.1505 220.582 59.4786 220.305 58.7294C220.027 57.9802 219.934 57.1754 220.031 56.3825C220.129 55.5896 220.415 54.8317 220.866 54.1722C221.317 53.5127 221.919 52.9708 222.623 52.5919C223.326 52.2131 224.11 52.0082 224.909 51.9946C225.707 51.981 226.498 52.159 227.214 52.5136C227.929 52.8683 228.55 53.3893 229.023 54.0331C229.496 54.6769 229.808 55.4246 229.933 56.2137C229.949 56.3198 229.93 56.4283 229.878 56.5226C229.827 56.6169 229.747 56.6919 229.649 56.7362C228.262 57.3774 227.087 58.402 226.263 59.689C225.44 60.9761 225.001 62.4719 225 63.9999C225 64.1599 225 64.3174 225.015 64.4749ZM247.765 63.3612C246.885 62.1925 245.717 61.2718 244.375 60.6887C244.965 60.1505 245.418 59.4786 245.695 58.7294C245.973 57.9802 246.066 57.1754 245.969 56.3825C245.871 55.5896 245.585 54.8317 245.134 54.1722C244.683 53.5127 244.081 52.9708 243.377 52.5919C242.674 52.2131 241.89 52.0082 241.092 51.9946C240.293 51.981 239.502 52.159 238.786 52.5136C238.071 52.8683 237.45 53.3893 236.977 54.0331C236.504 54.6769 236.192 55.4246 236.068 56.2137C236.051 56.3198 236.07 56.4283 236.122 56.5226C236.173 56.6169 236.253 56.6919 236.351 56.7362C237.738 57.3774 238.913 58.402 239.737 59.689C240.56 60.9761 240.999 62.4719 241 63.9999C241 64.1599 241 64.3174 240.985 64.4749C240.982 64.5427 240.992 64.6104 241.016 64.674C241.039 64.7376 241.076 64.7957 241.122 64.8448C241.169 64.8939 241.225 64.933 241.288 64.9596C241.35 64.9863 241.417 65 241.485 64.9999H247C247.226 65.0003 247.445 64.9243 247.622 64.7842C247.799 64.6442 247.923 64.4484 247.975 64.2287C248.007 64.078 248.006 63.9221 247.971 63.772C247.935 63.622 247.867 63.4817 247.771 63.3612H247.765ZM236.64 68.7587C237.636 67.9962 238.367 66.9408 238.732 65.7409C239.097 64.541 239.077 63.257 238.674 62.0692C238.272 60.8814 237.507 59.8497 236.488 59.1189C235.469 58.3882 234.246 57.9952 232.992 57.9952C231.738 57.9952 230.515 58.3882 229.496 59.1189C228.477 59.8497 227.712 60.8814 227.309 62.0692C226.907 63.257 226.887 64.541 227.251 65.7409C227.616 66.9408 228.348 67.9962 229.344 68.7587C227.577 69.5242 226.102 70.8353 225.134 72.4999C225.046 72.652 225 72.8244 225 73C225 73.1756 225.046 73.348 225.134 73.5C225.222 73.6521 225.348 73.7783 225.5 73.8661C225.652 73.9538 225.824 74 226 73.9999H240C240.176 74 240.348 73.9538 240.5 73.8661C240.652 73.7783 240.778 73.6521 240.866 73.5C240.954 73.348 241 73.1756 241 73C241 72.8244 240.954 72.652 240.866 72.4999C239.896 70.8342 238.418 69.523 236.649 68.7587H236.64Z" fill="#343330"/>
<path d="M258.031 36.6562H244.969C244.654 36.6562 244.352 36.7682 244.129 36.9674C243.906 37.1667 243.781 37.437 243.781 37.7188V47.2812C243.781 47.563 243.906 47.8333 244.129 48.0326C244.352 48.2318 244.654 48.3438 244.969 48.3438H258.031C258.346 48.3438 258.648 48.2318 258.871 48.0326C259.094 47.8333 259.219 47.563 259.219 47.2812V37.7188C259.219 37.437 259.094 37.1667 258.871 36.9674C258.648 36.7682 258.346 36.6562 258.031 36.6562ZM248.888 43.6688C249.013 43.7533 249.097 43.8791 249.119 44.0186C249.141 44.1581 249.101 44.2998 249.006 44.4125C248.912 44.5252 248.771 44.5997 248.615 44.6197C248.459 44.6396 248.301 44.6033 248.175 44.5187L245.8 42.925C245.726 42.8755 245.666 42.8113 245.625 42.7376C245.584 42.6638 245.562 42.5825 245.562 42.5C245.562 42.4175 245.584 42.3362 245.625 42.2624C245.666 42.1887 245.726 42.1245 245.8 42.075L248.175 40.4812C248.301 40.3967 248.459 40.3604 248.615 40.3803C248.771 40.4003 248.912 40.4748 249.006 40.5875C249.101 40.7002 249.141 40.8419 249.119 40.9814C249.097 41.1209 249.013 41.2467 248.888 41.3313L247.146 42.5L248.888 43.6688ZM253.258 38.9273L250.883 46.3648C250.863 46.4331 250.828 46.4971 250.78 46.553C250.731 46.6089 250.671 46.6557 250.603 46.6906C250.534 46.7255 250.458 46.7477 250.38 46.7561C250.301 46.7645 250.222 46.7588 250.146 46.7394C250.07 46.72 249.999 46.6872 249.938 46.643C249.876 46.5988 249.825 46.544 249.787 46.482C249.75 46.4199 249.726 46.3517 249.719 46.2814C249.711 46.2111 249.719 46.1402 249.742 46.0727L252.117 38.6352C252.162 38.5022 252.265 38.3905 252.401 38.3242C252.538 38.2578 252.698 38.2421 252.848 38.2804C252.997 38.3186 253.124 38.4078 253.201 38.5288C253.277 38.6498 253.298 38.7929 253.258 38.9273ZM257.2 42.925L254.825 44.5187C254.699 44.6033 254.541 44.6396 254.385 44.6197C254.229 44.5997 254.088 44.5252 253.994 44.4125C253.899 44.2998 253.859 44.1581 253.881 44.0186C253.903 43.8791 253.987 43.7533 254.112 43.6688L255.854 42.5L254.112 41.3313C254.05 41.2894 253.998 41.2369 253.958 41.1769C253.918 41.1169 253.892 41.0504 253.881 40.9814C253.87 40.9123 253.874 40.842 253.894 40.7744C253.913 40.7068 253.947 40.6433 253.994 40.5875C254.041 40.5317 254.099 40.4847 254.166 40.4491C254.233 40.4136 254.308 40.3902 254.385 40.3803C254.462 40.3705 254.541 40.3743 254.616 40.3916C254.692 40.4089 254.763 40.4394 254.825 40.4812L257.2 42.075C257.274 42.1245 257.334 42.1887 257.375 42.2624C257.416 42.3362 257.438 42.4175 257.438 42.5C257.438 42.5825 257.416 42.6638 257.375 42.7376C257.334 42.8113 257.274 42.8755 257.2 42.925Z" fill="#343330"/>
<path d="M203.25 42.4375V43.5625C203.25 43.8609 203.118 44.147 202.884 44.358C202.649 44.569 202.332 44.6875 202 44.6875V41.3125C202.332 41.3125 202.649 41.431 202.884 41.642C203.118 41.853 203.25 42.1391 203.25 42.4375ZM216.375 39.0625V46.9375C216.375 47.2359 216.243 47.522 216.009 47.733C215.774 47.944 215.457 48.0625 215.125 48.0625H198.875C198.543 48.0625 198.226 47.944 197.991 47.733C197.757 47.522 197.625 47.2359 197.625 46.9375V39.0625C197.625 38.7641 197.757 38.478 197.991 38.267C198.226 38.056 198.543 37.9375 198.875 37.9375H215.125C215.457 37.9375 215.774 38.056 216.009 38.267C216.243 38.478 216.375 38.7641 216.375 39.0625ZM204.5 42.4375C204.5 41.8408 204.237 41.2685 203.768 40.8465C203.299 40.4246 202.663 40.1875 202 40.1875H201.375C201.209 40.1875 201.05 40.2468 200.933 40.3523C200.816 40.4577 200.75 40.6008 200.75 40.75V45.25C200.75 45.3992 200.816 45.5423 200.933 45.6477C201.05 45.7532 201.209 45.8125 201.375 45.8125H202C202.663 45.8125 203.299 45.5754 203.768 45.1535C204.237 44.7315 204.5 44.1592 204.5 43.5625V42.4375ZM207 42.4375V41.3125H208.25C208.416 41.3125 208.575 41.2532 208.692 41.1477C208.809 41.0423 208.875 40.8992 208.875 40.75C208.875 40.6008 208.809 40.4577 208.692 40.3523C208.575 40.2468 208.416 40.1875 208.25 40.1875H206.375C206.209 40.1875 206.05 40.2468 205.933 40.3523C205.816 40.4577 205.75 40.6008 205.75 40.75V45.25C205.75 45.3992 205.816 45.5423 205.933 45.6477C206.05 45.7532 206.209 45.8125 206.375 45.8125H208.25C208.416 45.8125 208.575 45.7532 208.692 45.6477C208.809 45.5423 208.875 45.3992 208.875 45.25C208.875 45.1008 208.809 44.9577 208.692 44.8523C208.575 44.7468 208.416 44.6875 208.25 44.6875H207V43.5625H207.625C207.791 43.5625 207.95 43.5032 208.067 43.3977C208.184 43.2923 208.25 43.1492 208.25 43C208.25 42.8508 208.184 42.7077 208.067 42.6023C207.95 42.4968 207.791 42.4375 207.625 42.4375H207ZM213.42 40.2086C213.26 40.1681 213.089 40.1864 212.945 40.2593C212.8 40.3322 212.693 40.4538 212.648 40.5974L211.844 43.1723L211.039 40.5974C210.994 40.4544 210.887 40.3334 210.743 40.261C210.598 40.1885 210.428 40.1705 210.269 40.2108C210.11 40.2512 209.975 40.3466 209.894 40.4763C209.812 40.6059 209.792 40.7592 209.836 40.9026L211.242 45.4026C211.279 45.5206 211.358 45.6245 211.466 45.6984C211.575 45.7724 211.708 45.8125 211.844 45.8125C211.98 45.8125 212.112 45.7724 212.221 45.6984C212.33 45.6245 212.408 45.5206 212.445 45.4026L213.852 40.9026C213.897 40.759 213.876 40.6052 213.795 40.4751C213.714 40.3449 213.579 40.2491 213.42 40.2086Z" fill="#343330"/>
<path d="M253.5 75.7812C250.346 75.7812 247.875 77.607 247.875 79.9375V87.0625C247.875 89.393 250.346 91.2188 253.5 91.2188C256.654 91.2188 259.125 89.393 259.125 87.0625V79.9375C259.125 77.607 256.654 75.7812 253.5 75.7812ZM258.188 83.5C258.188 84.214 257.726 84.9421 256.921 85.498C256.015 86.1236 254.8 86.4688 253.5 86.4688C252.2 86.4688 250.985 86.1236 250.079 85.498C249.274 84.9421 248.812 84.214 248.812 83.5V82.265C249.812 83.3783 251.521 84.0938 253.5 84.0938C255.479 84.0938 257.188 83.3753 258.188 82.265V83.5ZM256.921 89.0605C256.015 89.6861 254.8 90.0312 253.5 90.0312C252.2 90.0312 250.985 89.6861 250.079 89.0605C249.274 88.5046 248.812 87.7765 248.812 87.0625V85.8275C249.812 86.9408 251.521 87.6562 253.5 87.6562C255.479 87.6562 257.188 86.9378 258.188 85.8275V87.0625C258.188 87.7765 257.726 88.5046 256.921 89.0605Z" fill="#343330"/>
<circle cx="84.5" cy="73.5" r="22.5" fill="#F5F3F3"/>
<path d="M88 67C88 66.7348 88.1054 66.4805 88.2929 66.2929C88.4804 66.1054 88.7348 66 89 66H100C100.265 66 100.52 66.1054 100.707 66.2929C100.895 66.4805 101 66.7348 101 67C101 67.2652 100.895 67.5196 100.707 67.7071C100.52 67.8947 100.265 68 100 68H89C88.7348 68 88.4804 67.8947 88.2929 67.7071C88.1054 67.5196 88 67.2652 88 67ZM100 72H89C88.7348 72 88.4804 72.1054 88.2929 72.2929C88.1054 72.4805 88 72.7348 88 73C88 73.2652 88.1054 73.5196 88.2929 73.7071C88.4804 73.8947 88.7348 74 89 74H100C100.265 74 100.52 73.8947 100.707 73.7071C100.895 73.5196 101 73.2652 101 73C101 72.7348 100.895 72.4805 100.707 72.2929C100.52 72.1054 100.265 72 100 72ZM100 78H92C91.7348 78 91.4804 78.1054 91.2929 78.2929C91.1054 78.4805 91 78.7348 91 79C91 79.2652 91.1054 79.5196 91.2929 79.7071C91.4804 79.8947 91.7348 80 92 80H100C100.265 80 100.52 79.8947 100.707 79.7071C100.895 79.5196 101 79.2652 101 79C101 78.7348 100.895 78.4805 100.707 78.2929C100.52 78.1054 100.265 78 100 78ZM82.6613 74.75C83.6537 73.9856 84.382 72.9297 84.744 71.7304C85.106 70.5311 85.0836 69.2486 84.6798 68.0628C84.2761 66.8769 83.5113 65.8471 82.4927 65.1179C81.474 64.3887 80.2527 63.9966 79 63.9966C77.7473 63.9966 76.526 64.3887 75.5074 65.1179C74.4888 65.8471 73.724 66.8769 73.3202 68.0628C72.9164 69.2486 72.894 70.5311 73.256 71.7304C73.618 72.9297 74.3463 73.9856 75.3388 74.75C72.7613 75.8413 70.73 78.0375 70.0313 80.75C69.9931 80.8978 69.9893 81.0524 70.0201 81.2019C70.0509 81.3515 70.1156 81.4919 70.2091 81.6126C70.3026 81.7333 70.4225 81.8309 70.5596 81.8981C70.6967 81.9652 70.8474 82.0001 71 82H87C87.1527 82.0001 87.3033 81.9652 87.4404 81.8981C87.5775 81.8309 87.6974 81.7333 87.7909 81.6126C87.8844 81.4919 87.9491 81.3515 87.9799 81.2019C88.0107 81.0524 88.0069 80.8978 87.9688 80.75C87.27 78.0363 85.2388 75.84 82.6613 74.75Z" fill="#343330"/>
</g>
<path d="M38.616 140.977H36.184V129.489H43.608V131.601H38.616V134.497H42.824V136.593H38.616V140.977ZM52.8298 138.865V140.977H45.1018V129.489H52.7178V131.601H47.5338V134.017H52.2378V136.113H47.5338V138.865H52.8298ZM62.2151 140.977L61.3511 138.513H56.8871L56.0071 140.977H53.5591L57.8791 129.489H60.5351L64.8231 140.977H62.2151ZM59.1431 132.145L57.5751 136.577H60.6791L59.1431 132.145ZM70.1983 140.977H67.7663V131.681H64.1503V129.489H73.8303V131.681H70.1983V140.977ZM84.529 129.489V136.609C84.529 139.329 82.801 141.217 79.809 141.217C76.769 141.217 75.073 139.329 75.073 136.609V129.489H77.505V136.657C77.505 138.081 78.193 139.041 79.809 139.041C81.409 139.041 82.097 138.081 82.097 136.657V129.489H84.529ZM89.111 140.977H86.679V129.489H91.175C94.071 129.489 95.751 130.833 95.751 133.217C95.751 134.769 94.791 136.001 93.159 136.545L96.119 140.977H93.223L90.631 136.913H89.111V140.977ZM89.111 131.505V134.913H91.063C92.535 134.913 93.319 134.337 93.319 133.217C93.319 132.081 92.535 131.505 91.063 131.505H89.111ZM105.184 138.865V140.977H97.4561V129.489H105.072V131.601H99.8881V134.017H104.592V136.113H99.8881V138.865H105.184Z" fill="white"/>
<path d="M40.016 156.937V161.137H45.656V163.801H40.016V168.241H46.376V170.977H36.656V154.201H46.376V156.937H40.016ZM55.5254 160.441H53.1974V170.977H49.7894V160.441H48.2774V157.681H49.7894V157.009C49.7894 155.377 50.2534 154.177 51.1814 153.409C52.1094 152.641 53.5094 152.281 55.3814 152.329V155.161C54.5654 155.145 53.9974 155.281 53.6774 155.569C53.3574 155.857 53.1974 156.377 53.1974 157.129V157.681H55.5254V160.441ZM63.7989 160.441H61.4709V170.977H58.0629V160.441H56.5509V157.681H58.0629V157.009C58.0629 155.377 58.5269 154.177 59.4549 153.409C60.3829 152.641 61.7829 152.281 63.6549 152.329V155.161C62.8389 155.145 62.2709 155.281 61.9509 155.569C61.6309 155.857 61.4709 156.377 61.4709 157.129V157.681H63.7989V160.441ZM71.8803 171.193C70.6003 171.193 69.4483 170.913 68.4243 170.353C67.4003 169.777 66.5923 168.969 66.0003 167.929C65.4243 166.889 65.1363 165.689 65.1363 164.329C65.1363 162.969 65.4323 161.769 66.0243 160.729C66.6323 159.689 67.4563 158.889 68.4963 158.329C69.5363 157.753 70.6963 157.465 71.9763 157.465C73.2563 157.465 74.4163 157.753 75.4563 158.329C76.4963 158.889 77.3123 159.689 77.9043 160.729C78.5123 161.769 78.8163 162.969 78.8163 164.329C78.8163 165.689 78.5043 166.889 77.8803 167.929C77.2723 168.969 76.4403 169.777 75.3843 170.353C74.3443 170.913 73.1763 171.193 71.8803 171.193ZM71.8803 168.265C72.4883 168.265 73.0563 168.121 73.5843 167.833C74.1283 167.529 74.5603 167.081 74.8803 166.489C75.2003 165.897 75.3603 165.177 75.3603 164.329C75.3603 163.065 75.0243 162.097 74.3523 161.425C73.6963 160.737 72.8883 160.393 71.9283 160.393C70.9683 160.393 70.1603 160.737 69.5043 161.425C68.8643 162.097 68.5443 163.065 68.5443 164.329C68.5443 165.593 68.8563 166.569 69.4803 167.257C70.1203 167.929 70.9203 168.265 71.8803 168.265ZM84.641 159.745C85.073 159.041 85.633 158.489 86.321 158.089C87.025 157.689 87.825 157.489 88.721 157.489V161.017H87.833C86.777 161.017 85.977 161.265 85.433 161.761C84.905 162.257 84.641 163.121 84.641 164.353V170.977H81.281V157.681H84.641V159.745ZM94.8961 160.441V166.873C94.8961 167.321 95.0001 167.649 95.2081 167.857C95.4321 168.049 95.8001 168.145 96.3121 168.145H97.8721V170.977H95.7601C92.9281 170.977 91.5121 169.601 91.5121 166.849V160.441H89.9281V157.681H91.5121V154.393H94.8961V157.681H97.8721V160.441H94.8961ZM103.649 153.217V170.977H100.289V153.217H103.649ZM119.329 164.041C119.329 164.521 119.297 164.953 119.233 165.337H109.513C109.593 166.297 109.929 167.049 110.521 167.593C111.113 168.137 111.841 168.409 112.705 168.409C113.953 168.409 114.841 167.873 115.369 166.801H118.993C118.609 168.081 117.873 169.137 116.785 169.969C115.697 170.785 114.361 171.193 112.777 171.193C111.497 171.193 110.345 170.913 109.321 170.353C108.313 169.777 107.521 168.969 106.945 167.929C106.385 166.889 106.104 165.689 106.104 164.329C106.104 162.953 106.385 161.745 106.945 160.705C107.505 159.665 108.289 158.865 109.297 158.305C110.305 157.745 111.465 157.465 112.777 157.465C114.041 157.465 115.169 157.737 116.161 158.281C117.169 158.825 117.945 159.601 118.489 160.609C119.049 161.601 119.329 162.745 119.329 164.041ZM115.849 163.081C115.833 162.217 115.521 161.529 114.913 161.017C114.305 160.489 113.561 160.225 112.681 160.225C111.849 160.225 111.145 160.481 110.569 160.993C110.009 161.489 109.665 162.185 109.537 163.081H115.849ZM126.869 171.193C125.781 171.193 124.805 171.001 123.941 170.617C123.077 170.217 122.389 169.681 121.877 169.009C121.381 168.337 121.109 167.593 121.061 166.777H124.445C124.509 167.289 124.757 167.713 125.189 168.049C125.637 168.385 126.189 168.553 126.845 168.553C127.485 168.553 127.981 168.425 128.333 168.169C128.701 167.913 128.885 167.585 128.885 167.185C128.885 166.753 128.661 166.433 128.213 166.225C127.781 166.001 127.085 165.761 126.125 165.505C125.133 165.265 124.317 165.017 123.677 164.761C123.053 164.505 122.509 164.113 122.045 163.585C121.597 163.057 121.373 162.345 121.373 161.449C121.373 160.713 121.581 160.041 121.997 159.433C122.429 158.825 123.037 158.345 123.821 157.993C124.621 157.641 125.557 157.465 126.629 157.465C128.213 157.465 129.477 157.865 130.421 158.665C131.365 159.449 131.885 160.513 131.981 161.857H128.765C128.717 161.329 128.493 160.913 128.093 160.609C127.709 160.289 127.189 160.129 126.533 160.129C125.925 160.129 125.453 160.241 125.117 160.465C124.797 160.689 124.637 161.001 124.637 161.401C124.637 161.849 124.861 162.193 125.309 162.433C125.757 162.657 126.453 162.889 127.397 163.129C128.357 163.369 129.149 163.617 129.773 163.873C130.397 164.129 130.933 164.529 131.381 165.073C131.845 165.601 132.085 166.305 132.101 167.185C132.101 167.953 131.885 168.641 131.453 169.249C131.037 169.857 130.429 170.337 129.629 170.689C128.845 171.025 127.925 171.193 126.869 171.193ZM139.947 171.193C138.859 171.193 137.883 171.001 137.019 170.617C136.155 170.217 135.467 169.681 134.955 169.009C134.459 168.337 134.187 167.593 134.139 166.777H137.523C137.587 167.289 137.835 167.713 138.267 168.049C138.715 168.385 139.267 168.553 139.923 168.553C140.563 168.553 141.059 168.425 141.411 168.169C141.779 167.913 141.963 167.585 141.963 167.185C141.963 166.753 141.739 166.433 141.291 166.225C140.859 166.001 140.163 165.761 139.203 165.505C138.211 165.265 137.395 165.017 136.755 164.761C136.131 164.505 135.587 164.113 135.123 163.585C134.675 163.057 134.451 162.345 134.451 161.449C134.451 160.713 134.659 160.041 135.075 159.433C135.507 158.825 136.115 158.345 136.899 157.993C137.699 157.641 138.635 157.465 139.707 157.465C141.291 157.465 142.555 157.865 143.499 158.665C144.443 159.449 144.963 160.513 145.059 161.857H141.843C141.795 161.329 141.571 160.913 141.171 160.609C140.787 160.289 140.267 160.129 139.611 160.129C139.003 160.129 138.531 160.241 138.195 160.465C137.875 160.689 137.715 161.001 137.715 161.401C137.715 161.849 137.939 162.193 138.387 162.433C138.835 162.657 139.531 162.889 140.475 163.129C141.435 163.369 142.227 163.617 142.851 163.873C143.475 164.129 144.011 164.529 144.459 165.073C144.923 165.601 145.163 166.305 145.179 167.185C145.179 167.953 144.963 168.641 144.531 169.249C144.115 169.857 143.507 170.337 142.707 170.689C141.923 171.025 141.003 171.193 139.947 171.193ZM151.297 153.217V170.977H147.937V153.217H151.297ZM167.337 157.681L159.105 177.265H155.529L158.409 170.641L153.081 157.681H156.849L160.281 166.969L163.761 157.681H167.337ZM179.955 171.193C178.867 171.193 177.891 171.001 177.027 170.617C176.163 170.217 175.475 169.681 174.963 169.009C174.467 168.337 174.195 167.593 174.147 166.777H177.531C177.595 167.289 177.843 167.713 178.275 168.049C178.723 168.385 179.275 168.553 179.931 168.553C180.571 168.553 181.067 168.425 181.419 168.169C181.787 167.913 181.971 167.585 181.971 167.185C181.971 166.753 181.747 166.433 181.299 166.225C180.867 166.001 180.171 165.761 179.211 165.505C178.219 165.265 177.403 165.017 176.763 164.761C176.139 164.505 175.595 164.113 175.131 163.585C174.683 163.057 174.459 162.345 174.459 161.449C174.459 160.713 174.667 160.041 175.083 159.433C175.515 158.825 176.123 158.345 176.907 157.993C177.707 157.641 178.643 157.465 179.715 157.465C181.299 157.465 182.563 157.865 183.507 158.665C184.451 159.449 184.971 160.513 185.067 161.857H181.851C181.803 161.329 181.579 160.913 181.179 160.609C180.795 160.289 180.275 160.129 179.619 160.129C179.011 160.129 178.539 160.241 178.203 160.465C177.883 160.689 177.723 161.001 177.723 161.401C177.723 161.849 177.947 162.193 178.395 162.433C178.843 162.657 179.539 162.889 180.483 163.129C181.443 163.369 182.235 163.617 182.859 163.873C183.483 164.129 184.019 164.529 184.467 165.073C184.931 165.601 185.171 166.305 185.187 167.185C185.187 167.953 184.971 168.641 184.539 169.249C184.123 169.857 183.515 170.337 182.715 170.689C181.931 171.025 181.011 171.193 179.955 171.193ZM191.857 160.441V166.873C191.857 167.321 191.961 167.649 192.169 167.857C192.393 168.049 192.761 168.145 193.273 168.145H194.833V170.977H192.721C189.889 170.977 188.473 169.601 188.473 166.849V160.441H186.889V157.681H188.473V154.393H191.857V157.681H194.833V160.441H191.857ZM200.61 159.745C201.042 159.041 201.602 158.489 202.29 158.089C202.994 157.689 203.794 157.489 204.69 157.489V161.017H203.802C202.746 161.017 201.946 161.265 201.402 161.761C200.874 162.257 200.61 163.121 200.61 164.353V170.977H197.25V157.681H200.61V159.745ZM219.313 164.041C219.313 164.521 219.281 164.953 219.217 165.337H209.497C209.577 166.297 209.913 167.049 210.505 167.593C211.097 168.137 211.825 168.409 212.689 168.409C213.937 168.409 214.825 167.873 215.353 166.801H218.977C218.593 168.081 217.857 169.137 216.769 169.969C215.681 170.785 214.345 171.193 212.761 171.193C211.481 171.193 210.329 170.913 209.305 170.353C208.297 169.777 207.505 168.969 206.929 167.929C206.369 166.889 206.089 165.689 206.089 164.329C206.089 162.953 206.369 161.745 206.929 160.705C207.489 159.665 208.273 158.865 209.281 158.305C210.289 157.745 211.449 157.465 212.761 157.465C214.025 157.465 215.153 157.737 216.145 158.281C217.153 158.825 217.929 159.601 218.473 160.609C219.033 161.601 219.313 162.745 219.313 164.041ZM215.833 163.081C215.817 162.217 215.505 161.529 214.897 161.017C214.289 160.489 213.545 160.225 212.665 160.225C211.833 160.225 211.129 160.481 210.553 160.993C209.993 161.489 209.649 162.185 209.521 163.081H215.833ZM220.901 164.281C220.901 162.937 221.165 161.745 221.693 160.705C222.237 159.665 222.965 158.865 223.877 158.305C224.805 157.745 225.837 157.465 226.973 157.465C227.965 157.465 228.829 157.665 229.565 158.065C230.317 158.465 230.917 158.969 231.365 159.577V157.681H234.749V170.977H231.365V169.033C230.933 169.657 230.333 170.177 229.565 170.593C228.813 170.993 227.941 171.193 226.949 171.193C225.829 171.193 224.805 170.905 223.877 170.329C222.965 169.753 222.237 168.945 221.693 167.905C221.165 166.849 220.901 165.641 220.901 164.281ZM231.365 164.329C231.365 163.513 231.205 162.817 230.885 162.241C230.565 161.649 230.133 161.201 229.589 160.897C229.045 160.577 228.461 160.417 227.837 160.417C227.213 160.417 226.637 160.569 226.109 160.873C225.581 161.177 225.149 161.625 224.813 162.217C224.493 162.793 224.333 163.481 224.333 164.281C224.333 165.081 224.493 165.785 224.813 166.393C225.149 166.985 225.581 167.441 226.109 167.761C226.653 168.081 227.229 168.241 227.837 168.241C228.461 168.241 229.045 168.089 229.589 167.785C230.133 167.465 230.565 167.017 230.885 166.441C231.205 165.849 231.365 165.145 231.365 164.329ZM254.543 157.489C256.175 157.489 257.487 157.993 258.479 159.001C259.487 159.993 259.991 161.385 259.991 163.177V170.977H256.631V163.633C256.631 162.593 256.367 161.801 255.839 161.257C255.311 160.697 254.591 160.417 253.679 160.417C252.767 160.417 252.039 160.697 251.495 161.257C250.967 161.801 250.703 162.593 250.703 163.633V170.977H247.343V163.633C247.343 162.593 247.079 161.801 246.551 161.257C246.023 160.697 245.303 160.417 244.391 160.417C243.463 160.417 242.727 160.697 242.183 161.257C241.655 161.801 241.391 162.593 241.391 163.633V170.977H238.031V157.681H241.391V159.289C241.823 158.729 242.375 158.289 243.047 157.969C243.735 157.649 244.487 157.489 245.303 157.489C246.343 157.489 247.271 157.713 248.087 158.161C248.903 158.593 249.535 159.217 249.983 160.033C250.415 159.265 251.039 158.649 251.855 158.185C252.687 157.721 253.583 157.489 254.543 157.489ZM266.539 153.217V170.977H263.179V153.217H266.539ZM271.563 156.097C270.971 156.097 270.475 155.913 270.075 155.545C269.691 155.161 269.499 154.689 269.499 154.129C269.499 153.569 269.691 153.105 270.075 152.737C270.475 152.353 270.971 152.161 271.563 152.161C272.155 152.161 272.643 152.353 273.027 152.737C273.427 153.105 273.627 153.569 273.627 154.129C273.627 154.689 273.427 155.161 273.027 155.545C272.643 155.913 272.155 156.097 271.563 156.097ZM273.219 157.681V170.977H269.859V157.681H273.219ZM283.907 157.489C285.491 157.489 286.771 157.993 287.747 159.001C288.723 159.993 289.211 161.385 289.211 163.177V170.977H285.851V163.633C285.851 162.577 285.587 161.769 285.059 161.209C284.531 160.633 283.811 160.345 282.899 160.345C281.971 160.345 281.235 160.633 280.691 161.209C280.163 161.769 279.899 162.577 279.899 163.633V170.977H276.539V157.681H279.899V159.337C280.347 158.761 280.915 158.313 281.603 157.993C282.307 157.657 283.075 157.489 283.907 157.489ZM304.766 164.041C304.766 164.521 304.734 164.953 304.67 165.337H294.95C295.03 166.297 295.366 167.049 295.958 167.593C296.55 168.137 297.278 168.409 298.142 168.409C299.39 168.409 300.278 167.873 300.806 166.801H304.43C304.046 168.081 303.31 169.137 302.222 169.969C301.134 170.785 299.798 171.193 298.214 171.193C296.934 171.193 295.782 170.913 294.758 170.353C293.75 169.777 292.958 168.969 292.382 167.929C291.822 166.889 291.542 165.689 291.542 164.329C291.542 162.953 291.822 161.745 292.382 160.705C292.942 159.665 293.726 158.865 294.734 158.305C295.742 157.745 296.902 157.465 298.214 157.465C299.478 157.465 300.606 157.737 301.598 158.281C302.606 158.825 303.382 159.601 303.926 160.609C304.486 161.601 304.766 162.745 304.766 164.041ZM301.286 163.081C301.27 162.217 300.958 161.529 300.35 161.017C299.742 160.489 298.998 160.225 298.118 160.225C297.286 160.225 296.582 160.481 296.006 160.993C295.446 161.489 295.102 162.185 294.974 163.081H301.286ZM316.849 160.441V166.873C316.849 167.321 316.953 167.649 317.161 167.857C317.385 168.049 317.753 168.145 318.265 168.145H319.825V170.977H317.713C314.881 170.977 313.465 169.601 313.465 166.849V160.441H311.881V157.681H313.465V154.393H316.849V157.681H319.825V160.441H316.849ZM334.602 164.041C334.602 164.521 334.57 164.953 334.506 165.337H324.786C324.866 166.297 325.202 167.049 325.794 167.593C326.386 168.137 327.114 168.409 327.978 168.409C329.226 168.409 330.114 167.873 330.642 166.801H334.266C333.882 168.081 333.146 169.137 332.058 169.969C330.97 170.785 329.634 171.193 328.05 171.193C326.77 171.193 325.618 170.913 324.594 170.353C323.586 169.777 322.794 168.969 322.218 167.929C321.658 166.889 321.378 165.689 321.378 164.329C321.378 162.953 321.658 161.745 322.218 160.705C322.778 159.665 323.562 158.865 324.57 158.305C325.578 157.745 326.738 157.465 328.05 157.465C329.314 157.465 330.442 157.737 331.434 158.281C332.442 158.825 333.218 159.601 333.762 160.609C334.322 161.601 334.602 162.745 334.602 164.041ZM331.122 163.081C331.106 162.217 330.794 161.529 330.186 161.017C329.578 160.489 328.834 160.225 327.954 160.225C327.122 160.225 326.418 160.481 325.842 160.993C325.282 161.489 324.938 162.185 324.81 163.081H331.122ZM336.19 164.281C336.19 162.937 336.454 161.745 336.982 160.705C337.526 159.665 338.254 158.865 339.166 158.305C340.094 157.745 341.126 157.465 342.262 157.465C343.254 157.465 344.118 157.665 344.854 158.065C345.606 158.465 346.206 158.969 346.654 159.577V157.681H350.038V170.977H346.654V169.033C346.222 169.657 345.622 170.177 344.854 170.593C344.102 170.993 343.23 171.193 342.238 171.193C341.118 171.193 340.094 170.905 339.166 170.329C338.254 169.753 337.526 168.945 336.982 167.905C336.454 166.849 336.19 165.641 336.19 164.281ZM346.654 164.329C346.654 163.513 346.494 162.817 346.174 162.241C345.854 161.649 345.422 161.201 344.878 160.897C344.334 160.577 343.75 160.417 343.126 160.417C342.502 160.417 341.926 160.569 341.398 160.873C340.87 161.177 340.438 161.625 340.102 162.217C339.782 162.793 339.622 163.481 339.622 164.281C339.622 165.081 339.782 165.785 340.102 166.393C340.438 166.985 340.87 167.441 341.398 167.761C341.942 168.081 342.518 168.241 343.126 168.241C343.75 168.241 344.334 168.089 344.878 167.785C345.422 167.465 345.854 167.017 346.174 166.441C346.494 165.849 346.654 165.145 346.654 164.329ZM369.832 157.489C371.464 157.489 372.776 157.993 373.768 159.001C374.776 159.993 375.28 161.385 375.28 163.177V170.977H371.92V163.633C371.92 162.593 371.656 161.801 371.128 161.257C370.6 160.697 369.88 160.417 368.968 160.417C368.056 160.417 367.328 160.697 366.784 161.257C366.256 161.801 365.992 162.593 365.992 163.633V170.977H362.632V163.633C362.632 162.593 362.368 161.801 361.84 161.257C361.312 160.697 360.592 160.417 359.68 160.417C358.752 160.417 358.016 160.697 357.472 161.257C356.944 161.801 356.68 162.593 356.68 163.633V170.977H353.32V157.681H356.68V159.289C357.112 158.729 357.664 158.289 358.336 157.969C359.024 157.649 359.776 157.489 360.592 157.489C361.632 157.489 362.56 157.713 363.376 158.161C364.192 158.593 364.824 159.217 365.272 160.033C365.704 159.265 366.328 158.649 367.144 158.185C367.976 157.721 368.872 157.489 369.832 157.489ZM396.901 157.681L393.013 170.977H389.389L386.965 161.689L384.541 170.977H380.893L376.981 157.681H380.389L382.741 167.809L385.285 157.681H388.837L391.333 167.785L393.685 157.681H396.901ZM404.623 171.193C403.343 171.193 402.191 170.913 401.167 170.353C400.143 169.777 399.335 168.969 398.743 167.929C398.167 166.889 397.879 165.689 397.879 164.329C397.879 162.969 398.175 161.769 398.767 160.729C399.375 159.689 400.199 158.889 401.239 158.329C402.279 157.753 403.439 157.465 404.719 157.465C405.999 157.465 407.159 157.753 408.199 158.329C409.239 158.889 410.055 159.689 410.647 160.729C411.255 161.769 411.559 162.969 411.559 164.329C411.559 165.689 411.247 166.889 410.622 167.929C410.015 168.969 409.183 169.777 408.127 170.353C407.087 170.913 405.919 171.193 404.623 171.193ZM404.623 168.265C405.231 168.265 405.799 168.121 406.327 167.833C406.871 167.529 407.303 167.081 407.623 166.489C407.943 165.897 408.103 165.177 408.103 164.329C408.103 163.065 407.767 162.097 407.095 161.425C406.439 160.737 405.631 160.393 404.671 160.393C403.711 160.393 402.903 160.737 402.247 161.425C401.607 162.097 401.287 163.065 401.287 164.329C401.287 165.593 401.599 166.569 402.223 167.257C402.863 167.929 403.663 168.265 404.623 168.265ZM417.383 159.745C417.815 159.041 418.375 158.489 419.063 158.089C419.767 157.689 420.567 157.489 421.463 157.489V161.017H420.575C419.519 161.017 418.719 161.265 418.175 161.761C417.647 162.257 417.383 163.121 417.383 164.353V170.977H414.023V157.681H417.383V159.745ZM431.598 170.977L427.086 165.313V170.977H423.726V153.217H427.086V163.321L431.55 157.681H435.918L430.062 164.353L435.966 170.977H431.598ZM441.414 167.449L438.606 174.193H436.446L438.006 167.449H441.414ZM35.792 188.281C35.792 186.937 36.056 185.745 36.584 184.705C37.128 183.665 37.856 182.865 38.768 182.305C39.696 181.745 40.728 181.465 41.864 181.465C42.856 181.465 43.72 181.665 44.456 182.065C45.208 182.465 45.808 182.969 46.256 183.577V181.681H49.64V194.977H46.256V193.033C45.824 193.657 45.224 194.177 44.456 194.593C43.704 194.993 42.832 195.193 41.84 195.193C40.72 195.193 39.696 194.905 38.768 194.329C37.856 193.753 37.128 192.945 36.584 191.905C36.056 190.849 35.792 189.641 35.792 188.281ZM46.256 188.329C46.256 187.513 46.096 186.817 45.776 186.241C45.456 185.649 45.024 185.201 44.48 184.897C43.936 184.577 43.352 184.417 42.728 184.417C42.104 184.417 41.528 184.569 41 184.873C40.472 185.177 40.04 185.625 39.704 186.217C39.384 186.793 39.224 187.481 39.224 188.281C39.224 189.081 39.384 189.785 39.704 190.393C40.04 190.985 40.472 191.441 41 191.761C41.544 192.081 42.12 192.241 42.728 192.241C43.352 192.241 43.936 192.089 44.48 191.785C45.024 191.465 45.456 191.017 45.776 190.441C46.096 189.849 46.256 189.145 46.256 188.329ZM69.4336 181.489C71.0656 181.489 72.3776 181.993 73.3696 183.001C74.3776 183.993 74.8816 185.385 74.8816 187.177V194.977H71.5216V187.633C71.5216 186.593 71.2576 185.801 70.7296 185.257C70.2016 184.697 69.4816 184.417 68.5696 184.417C67.6576 184.417 66.9296 184.697 66.3856 185.257C65.8576 185.801 65.5936 186.593 65.5936 187.633V194.977H62.2336V187.633C62.2336 186.593 61.9696 185.801 61.4416 185.257C60.9136 184.697 60.1936 184.417 59.2816 184.417C58.3536 184.417 57.6176 184.697 57.0736 185.257C56.5456 185.801 56.2816 186.593 56.2816 187.633V194.977H52.9216V181.681H56.2816V183.289C56.7136 182.729 57.2656 182.289 57.9376 181.969C58.6256 181.649 59.3776 181.489 60.1936 181.489C61.2336 181.489 62.1616 181.713 62.9776 182.161C63.7936 182.593 64.4256 183.217 64.8736 184.033C65.3056 183.265 65.9296 182.649 66.7456 182.185C67.5776 181.721 68.4736 181.489 69.4336 181.489ZM81.4301 183.601C81.8621 182.993 82.4541 182.489 83.2061 182.089C83.9741 181.673 84.8461 181.465 85.8221 181.465C86.9581 181.465 87.9821 181.745 88.8941 182.305C89.8221 182.865 90.5501 183.665 91.0781 184.705C91.6221 185.729 91.8941 186.921 91.8941 188.281C91.8941 189.641 91.6221 190.849 91.0781 191.905C90.5501 192.945 89.8221 193.753 88.8941 194.329C87.9821 194.905 86.9581 195.193 85.8221 195.193C84.8461 195.193 83.9821 194.993 83.2301 194.593C82.4941 194.193 81.8941 193.689 81.4301 193.081V201.313H78.0701V181.681H81.4301V183.601ZM88.4621 188.281C88.4621 187.481 88.2941 186.793 87.9581 186.217C87.6381 185.625 87.2061 185.177 86.6621 184.873C86.1341 184.569 85.5581 184.417 84.9341 184.417C84.3261 184.417 83.7501 184.577 83.2061 184.897C82.6781 185.201 82.2461 185.649 81.9101 186.241C81.5901 186.833 81.4301 187.529 81.4301 188.329C81.4301 189.129 81.5901 189.825 81.9101 190.417C82.2461 191.009 82.6781 191.465 83.2061 191.785C83.7501 192.089 84.3261 192.241 84.9341 192.241C85.5581 192.241 86.1341 192.081 86.6621 191.761C87.2061 191.441 87.6381 190.985 87.9581 190.393C88.2941 189.801 88.4621 189.097 88.4621 188.281ZM97.6957 177.217V194.977H94.3357V177.217H97.6957ZM102.719 180.097C102.127 180.097 101.631 179.913 101.231 179.545C100.847 179.161 100.655 178.689 100.655 178.129C100.655 177.569 100.847 177.105 101.231 176.737C101.631 176.353 102.127 176.161 102.719 176.161C103.311 176.161 103.799 176.353 104.183 176.737C104.583 177.105 104.783 177.569 104.783 178.129C104.783 178.689 104.583 179.161 104.183 179.545C103.799 179.913 103.311 180.097 102.719 180.097ZM104.375 181.681V194.977H101.015V181.681H104.375ZM113.791 184.441H111.463V194.977H108.055V184.441H106.543V181.681H108.055V181.009C108.055 179.377 108.519 178.177 109.447 177.409C110.375 176.641 111.775 176.281 113.647 176.329V179.161C112.831 179.145 112.263 179.281 111.943 179.569C111.623 179.857 111.463 180.377 111.463 181.129V181.681H113.791V184.441ZM128.689 181.681L120.457 201.265H116.881L119.761 194.641L114.433 181.681H118.201L121.633 190.969L125.113 181.681H128.689ZM139.579 183.601C140.011 182.993 140.603 182.489 141.355 182.089C142.123 181.673 142.995 181.465 143.971 181.465C145.107 181.465 146.131 181.745 147.043 182.305C147.971 182.865 148.699 183.665 149.227 184.705C149.771 185.729 150.043 186.921 150.043 188.281C150.043 189.641 149.771 190.849 149.227 191.905C148.699 192.945 147.971 193.753 147.043 194.329C146.131 194.905 145.107 195.193 143.971 195.193C142.995 195.193 142.131 194.993 141.379 194.593C140.643 194.193 140.043 193.689 139.579 193.081V201.313H136.219V181.681H139.579V183.601ZM146.611 188.281C146.611 187.481 146.443 186.793 146.107 186.217C145.787 185.625 145.355 185.177 144.811 184.873C144.283 184.569 143.707 184.417 143.083 184.417C142.475 184.417 141.899 184.577 141.355 184.897C140.827 185.201 140.395 185.649 140.059 186.241C139.739 186.833 139.579 187.529 139.579 188.329C139.579 189.129 139.739 189.825 140.059 190.417C140.395 191.009 140.827 191.465 141.355 191.785C141.899 192.089 142.475 192.241 143.083 192.241C143.707 192.241 144.283 192.081 144.811 191.761C145.355 191.441 145.787 190.985 146.107 190.393C146.443 189.801 146.611 189.097 146.611 188.281ZM155.844 183.745C156.276 183.041 156.836 182.489 157.524 182.089C158.228 181.689 159.028 181.489 159.924 181.489V185.017H159.036C157.98 185.017 157.18 185.265 156.636 185.761C156.108 186.257 155.844 187.121 155.844 188.353V194.977H152.484V181.681H155.844V183.745ZM168.091 195.193C166.811 195.193 165.659 194.913 164.635 194.353C163.611 193.777 162.803 192.969 162.211 191.929C161.635 190.889 161.347 189.689 161.347 188.329C161.347 186.969 161.643 185.769 162.235 184.729C162.843 183.689 163.667 182.889 164.707 182.329C165.747 181.753 166.907 181.465 168.187 181.465C169.467 181.465 170.627 181.753 171.667 182.329C172.707 182.889 173.523 183.689 174.115 184.729C174.723 185.769 175.027 186.969 175.027 188.329C175.027 189.689 174.715 190.889 174.091 191.929C173.483 192.969 172.651 193.777 171.595 194.353C170.555 194.913 169.387 195.193 168.091 195.193ZM168.091 192.265C168.699 192.265 169.267 192.121 169.795 191.833C170.339 191.529 170.771 191.081 171.091 190.489C171.411 189.897 171.571 189.177 171.571 188.329C171.571 187.065 171.235 186.097 170.563 185.425C169.907 184.737 169.099 184.393 168.139 184.393C167.179 184.393 166.371 184.737 165.715 185.425C165.075 186.097 164.755 187.065 164.755 188.329C164.755 189.593 165.067 190.569 165.691 191.257C166.331 191.929 167.131 192.265 168.091 192.265ZM176.628 188.281C176.628 186.937 176.892 185.745 177.42 184.705C177.964 183.665 178.7 182.865 179.628 182.305C180.556 181.745 181.588 181.465 182.724 181.465C183.588 181.465 184.412 181.657 185.196 182.041C185.98 182.409 186.604 182.905 187.068 183.529V177.217H190.476V194.977H187.068V193.009C186.652 193.665 186.068 194.193 185.316 194.593C184.564 194.993 183.692 195.193 182.7 195.193C181.58 195.193 180.556 194.905 179.628 194.329C178.7 193.753 177.964 192.945 177.42 191.905C176.892 190.849 176.628 189.641 176.628 188.281ZM187.092 188.329C187.092 187.513 186.932 186.817 186.612 186.241C186.292 185.649 185.86 185.201 185.316 184.897C184.772 184.577 184.188 184.417 183.564 184.417C182.94 184.417 182.364 184.569 181.836 184.873C181.308 185.177 180.876 185.625 180.54 186.217C180.22 186.793 180.06 187.481 180.06 188.281C180.06 189.081 180.22 189.785 180.54 190.393C180.876 190.985 181.308 191.441 181.836 191.761C182.38 192.081 182.956 192.241 183.564 192.241C184.188 192.241 184.772 192.089 185.316 191.785C185.86 191.465 186.292 191.017 186.612 190.441C186.932 189.849 187.092 189.145 187.092 188.329ZM206.31 181.681V194.977H202.926V193.297C202.494 193.873 201.926 194.329 201.222 194.665C200.534 194.985 199.782 195.145 198.966 195.145C197.926 195.145 197.006 194.929 196.206 194.497C195.406 194.049 194.774 193.401 194.31 192.553C193.862 191.689 193.638 190.665 193.638 189.481V181.681H196.998V189.001C196.998 190.057 197.262 190.873 197.79 191.449C198.318 192.009 199.038 192.289 199.95 192.289C200.878 192.289 201.606 192.009 202.134 191.449C202.662 190.873 202.926 190.057 202.926 189.001V181.681H206.31ZM208.761 188.329C208.761 186.953 209.041 185.753 209.601 184.729C210.161 183.689 210.937 182.889 211.929 182.329C212.921 181.753 214.057 181.465 215.337 181.465C216.985 181.465 218.345 181.881 219.417 182.713C220.505 183.529 221.233 184.681 221.601 186.169H217.977C217.785 185.593 217.457 185.145 216.993 184.825C216.545 184.489 215.985 184.321 215.313 184.321C214.353 184.321 213.593 184.673 213.033 185.377C212.473 186.065 212.193 187.049 212.193 188.329C212.193 189.593 212.473 190.577 213.033 191.281C213.593 191.969 214.353 192.313 215.313 192.313C216.673 192.313 217.561 191.705 217.977 190.489H221.601C221.233 191.929 220.505 193.073 219.417 193.921C218.329 194.769 216.969 195.193 215.337 195.193C214.057 195.193 212.921 194.913 211.929 194.353C210.937 193.777 210.161 192.977 209.601 191.953C209.041 190.913 208.761 189.705 208.761 188.329ZM227.974 184.441V190.873C227.974 191.321 228.078 191.649 228.286 191.857C228.51 192.049 228.878 192.145 229.39 192.145H230.95V194.977H228.838C226.006 194.977 224.59 193.601 224.59 190.849V184.441H223.006V181.681H224.59V178.393H227.974V181.681H230.95V184.441H227.974ZM235.071 180.097C234.479 180.097 233.983 179.913 233.583 179.545C233.199 179.161 233.007 178.689 233.007 178.129C233.007 177.569 233.199 177.105 233.583 176.737C233.983 176.353 234.479 176.161 235.071 176.161C235.663 176.161 236.151 176.353 236.535 176.737C236.935 177.105 237.135 177.569 237.135 178.129C237.135 178.689 236.935 179.161 236.535 179.545C236.151 179.913 235.663 180.097 235.071 180.097ZM236.727 181.681V194.977H233.367V181.681H236.727ZM245.591 191.881L248.951 181.681H252.527L247.607 194.977H243.527L238.631 181.681H242.231L245.591 191.881ZM256.118 180.097C255.526 180.097 255.03 179.913 254.63 179.545C254.246 179.161 254.054 178.689 254.054 178.129C254.054 177.569 254.246 177.105 254.63 176.737C255.03 176.353 255.526 176.161 256.118 176.161C256.71 176.161 257.198 176.353 257.582 176.737C257.982 177.105 258.182 177.569 258.182 178.129C258.182 178.689 257.982 179.161 257.582 179.545C257.198 179.913 256.71 180.097 256.118 180.097ZM257.774 181.681V194.977H254.414V181.681H257.774ZM265.006 184.441V190.873C265.006 191.321 265.11 191.649 265.318 191.857C265.542 192.049 265.91 192.145 266.422 192.145H267.982V194.977H265.87C263.038 194.977 261.622 193.601 261.622 190.849V184.441H260.038V181.681H261.622V178.393H265.006V181.681H267.982V184.441H265.006ZM283.118 181.681L274.886 201.265H271.31L274.19 194.641L268.862 181.681H272.63L276.062 190.969L279.542 181.681H283.118ZM288.601 191.449L285.793 198.193H283.633L285.193 191.449H288.601ZM295.878 188.281C295.878 186.937 296.142 185.745 296.67 184.705C297.214 183.665 297.942 182.865 298.854 182.305C299.782 181.745 300.814 181.465 301.95 181.465C302.942 181.465 303.806 181.665 304.542 182.065C305.294 182.465 305.894 182.969 306.342 183.577V181.681H309.726V194.977H306.342V193.033C305.91 193.657 305.31 194.177 304.542 194.593C303.79 194.993 302.918 195.193 301.926 195.193C300.806 195.193 299.782 194.905 298.854 194.329C297.942 193.753 297.214 192.945 296.67 191.905C296.142 190.849 295.878 189.641 295.878 188.281ZM306.342 188.329C306.342 187.513 306.182 186.817 305.862 186.241C305.542 185.649 305.11 185.201 304.566 184.897C304.022 184.577 303.438 184.417 302.814 184.417C302.19 184.417 301.614 184.569 301.086 184.873C300.558 185.177 300.126 185.625 299.79 186.217C299.47 186.793 299.31 187.481 299.31 188.281C299.31 189.081 299.47 189.785 299.79 190.393C300.126 190.985 300.558 191.441 301.086 191.761C301.63 192.081 302.206 192.241 302.814 192.241C303.438 192.241 304.022 192.089 304.566 191.785C305.11 191.465 305.542 191.017 305.862 190.441C306.182 189.849 306.342 189.145 306.342 188.329ZM320.376 181.489C321.96 181.489 323.24 181.993 324.216 183.001C325.192 183.993 325.68 185.385 325.68 187.177V194.977H322.32V187.633C322.32 186.577 322.056 185.769 321.528 185.209C321 184.633 320.28 184.345 319.368 184.345C318.44 184.345 317.704 184.633 317.16 185.209C316.632 185.769 316.368 186.577 316.368 187.633V194.977H313.008V181.681H316.368V183.337C316.816 182.761 317.384 182.313 318.072 181.993C318.776 181.657 319.544 181.489 320.376 181.489ZM328.011 188.281C328.011 186.937 328.275 185.745 328.803 184.705C329.347 183.665 330.083 182.865 331.011 182.305C331.939 181.745 332.971 181.465 334.107 181.465C334.971 181.465 335.795 181.657 336.579 182.041C337.363 182.409 337.987 182.905 338.451 183.529V177.217H341.859V194.977H338.451V193.009C338.035 193.665 337.451 194.193 336.699 194.593C335.947 194.993 335.075 195.193 334.083 195.193C332.963 195.193 331.939 194.905 331.011 194.329C330.083 193.753 329.347 192.945 328.803 191.905C328.275 190.849 328.011 189.641 328.011 188.281ZM338.475 188.329C338.475 187.513 338.315 186.817 337.995 186.241C337.675 185.649 337.243 185.201 336.699 184.897C336.155 184.577 335.571 184.417 334.947 184.417C334.323 184.417 333.747 184.569 333.219 184.873C332.691 185.177 332.259 185.625 331.923 186.217C331.603 186.793 331.443 187.481 331.443 188.281C331.443 189.081 331.603 189.785 331.923 190.393C332.259 190.985 332.691 191.441 333.219 191.761C333.763 192.081 334.339 192.241 334.947 192.241C335.571 192.241 336.155 192.089 336.699 191.785C337.243 191.465 337.675 191.017 337.995 190.441C338.315 189.849 338.475 189.145 338.475 188.329ZM349.995 188.281C349.995 186.937 350.259 185.745 350.787 184.705C351.331 183.665 352.059 182.865 352.971 182.305C353.899 181.745 354.931 181.465 356.067 181.465C357.059 181.465 357.923 181.665 358.659 182.065C359.411 182.465 360.011 182.969 360.459 183.577V181.681H363.843V194.977H360.459V193.033C360.027 193.657 359.427 194.177 358.659 194.593C357.907 194.993 357.035 195.193 356.043 195.193C354.923 195.193 353.899 194.905 352.971 194.329C352.059 193.753 351.331 192.945 350.787 191.905C350.259 190.849 349.995 189.641 349.995 188.281ZM360.459 188.329C360.459 187.513 360.299 186.817 359.979 186.241C359.659 185.649 359.227 185.201 358.683 184.897C358.139 184.577 357.555 184.417 356.931 184.417C356.307 184.417 355.731 184.569 355.203 184.873C354.675 185.177 354.243 185.625 353.907 186.217C353.587 186.793 353.427 187.481 353.427 188.281C353.427 189.081 353.587 189.785 353.907 190.393C354.243 190.985 354.675 191.441 355.203 191.761C355.747 192.081 356.323 192.241 356.931 192.241C357.555 192.241 358.139 192.089 358.683 191.785C359.227 191.465 359.659 191.017 359.979 190.441C360.299 189.849 360.459 189.145 360.459 188.329ZM366.261 188.329C366.261 186.953 366.541 185.753 367.101 184.729C367.661 183.689 368.437 182.889 369.429 182.329C370.421 181.753 371.557 181.465 372.837 181.465C374.485 181.465 375.845 181.881 376.917 182.713C378.005 183.529 378.733 184.681 379.101 186.169H375.477C375.285 185.593 374.957 185.145 374.493 184.825C374.045 184.489 373.485 184.321 372.813 184.321C371.853 184.321 371.093 184.673 370.533 185.377C369.973 186.065 369.693 187.049 369.693 188.329C369.693 189.593 369.973 190.577 370.533 191.281C371.093 191.969 371.853 192.313 372.813 192.313C374.173 192.313 375.061 191.705 375.477 190.489H379.101C378.733 191.929 378.005 193.073 376.917 193.921C375.829 194.769 374.469 195.193 372.837 195.193C371.557 195.193 370.421 194.913 369.429 194.353C368.437 193.777 367.661 192.977 367.101 191.953C366.541 190.913 366.261 189.705 366.261 188.329ZM389.05 181.489C390.058 181.489 390.954 181.713 391.738 182.161C392.522 182.593 393.13 183.241 393.562 184.105C394.01 184.953 394.234 185.977 394.234 187.177V194.977H390.874V187.633C390.874 186.577 390.61 185.769 390.082 185.209C389.554 184.633 388.834 184.345 387.922 184.345C386.994 184.345 386.258 184.633 385.714 185.209C385.186 185.769 384.922 186.577 384.922 187.633V194.977H381.562V177.217H384.922V183.337C385.354 182.761 385.93 182.313 386.65 181.993C387.37 181.657 388.17 181.489 389.05 181.489ZM399.133 180.097C398.541 180.097 398.045 179.913 397.645 179.545C397.261 179.161 397.069 178.689 397.069 178.129C397.069 177.569 397.261 177.105 397.645 176.737C398.045 176.353 398.541 176.161 399.133 176.161C399.725 176.161 400.213 176.353 400.597 176.737C400.997 177.105 401.197 177.569 401.197 178.129C401.197 178.689 400.997 179.161 400.597 179.545C400.213 179.913 399.725 180.097 399.133 180.097ZM400.789 181.681V194.977H397.429V181.681H400.789ZM416.469 188.041C416.469 188.521 416.437 188.953 416.373 189.337H406.653C406.733 190.297 407.069 191.049 407.661 191.593C408.253 192.137 408.981 192.409 409.845 192.409C411.093 192.409 411.981 191.873 412.509 190.801H416.133C415.749 192.081 415.013 193.137 413.925 193.969C412.837 194.785 411.501 195.193 409.917 195.193C408.637 195.193 407.485 194.913 406.461 194.353C405.453 193.777 404.661 192.969 404.085 191.929C403.525 190.889 403.245 189.689 403.245 188.329C403.245 186.953 403.525 185.745 404.085 184.705C404.645 183.665 405.429 182.865 406.437 182.305C407.445 181.745 408.605 181.465 409.917 181.465C411.181 181.465 412.309 181.737 413.301 182.281C414.309 182.825 415.085 183.601 415.629 184.609C416.189 185.601 416.469 186.745 416.469 188.041ZM412.989 187.081C412.973 186.217 412.661 185.529 412.053 185.017C411.445 184.489 410.701 184.225 409.821 184.225C408.989 184.225 408.285 184.481 407.709 184.993C407.149 185.489 406.805 186.185 406.677 187.081H412.989ZM424.466 191.881L427.826 181.681H431.402L426.482 194.977H422.402L417.506 181.681H421.106L424.466 191.881ZM445.649 188.041C445.649 188.521 445.617 188.953 445.553 189.337H435.833C435.913 190.297 436.249 191.049 436.841 191.593C437.433 192.137 438.161 192.409 439.025 192.409C440.273 192.409 441.161 191.873 441.689 190.801H445.313C444.929 192.081 444.193 193.137 443.105 193.969C442.017 194.785 440.681 195.193 439.097 195.193C437.817 195.193 436.665 194.913 435.641 194.353C434.633 193.777 433.841 192.969 433.265 191.929C432.705 190.889 432.425 189.689 432.425 188.329C432.425 186.953 432.705 185.745 433.265 184.705C433.825 183.665 434.609 182.865 435.617 182.305C436.625 181.745 437.785 181.465 439.097 181.465C440.361 181.465 441.489 181.737 442.481 182.281C443.489 182.825 444.265 183.601 444.809 184.609C445.369 185.601 445.649 186.745 445.649 188.041ZM442.169 187.081C442.153 186.217 441.841 185.529 441.233 185.017C440.625 184.489 439.881 184.225 439.001 184.225C438.169 184.225 437.465 184.481 436.889 184.993C436.329 185.489 435.985 186.185 435.857 187.081H442.169ZM49.376 205.681L41.144 225.265H37.568L40.448 218.641L35.12 205.681H38.888L42.32 214.969L45.8 205.681H49.376ZM57.0913 219.193C55.8113 219.193 54.6593 218.913 53.6353 218.353C52.6113 217.777 51.8033 216.969 51.2113 215.929C50.6353 214.889 50.3473 213.689 50.3473 212.329C50.3473 210.969 50.6433 209.769 51.2353 208.729C51.8433 207.689 52.6673 206.889 53.7073 206.329C54.7473 205.753 55.9073 205.465 57.1873 205.465C58.4673 205.465 59.6273 205.753 60.6673 206.329C61.7073 206.889 62.5233 207.689 63.1153 208.729C63.7233 209.769 64.0273 210.969 64.0273 212.329C64.0273 213.689 63.7153 214.889 63.0912 215.929C62.4833 216.969 61.6513 217.777 60.5953 218.353C59.5553 218.913 58.3873 219.193 57.0913 219.193ZM57.0913 216.265C57.6993 216.265 58.2673 216.121 58.7953 215.833C59.3393 215.529 59.7713 215.081 60.0913 214.489C60.4113 213.897 60.5713 213.177 60.5713 212.329C60.5713 211.065 60.2353 210.097 59.5633 209.425C58.9073 208.737 58.0993 208.393 57.1393 208.393C56.1793 208.393 55.3713 208.737 54.7153 209.425C54.0753 210.097 53.7553 211.065 53.7553 212.329C53.7553 213.593 54.0673 214.569 54.6913 215.257C55.3313 215.929 56.1313 216.265 57.0913 216.265ZM79.0439 205.681V218.977H75.6599V217.297C75.2279 217.873 74.6599 218.329 73.9559 218.665C73.2679 218.985 72.5159 219.145 71.6999 219.145C70.6599 219.145 69.7399 218.929 68.9399 218.497C68.1399 218.049 67.5079 217.401 67.0439 216.553C66.5959 215.689 66.3719 214.665 66.3719 213.481V205.681H69.7319V213.001C69.7319 214.057 69.9959 214.873 70.5239 215.449C71.0519 216.009 71.7719 216.289 72.6839 216.289C73.6119 216.289 74.3399 216.009 74.8679 215.449C75.3959 214.873 75.6599 214.057 75.6599 213.001V205.681H79.0439ZM85.7191 207.745C86.1511 207.041 86.7111 206.489 87.3991 206.089C88.1031 205.689 88.9031 205.489 89.7991 205.489V209.017H88.9111C87.8551 209.017 87.0551 209.265 86.5111 209.761C85.9831 210.257 85.7191 211.121 85.7191 212.353V218.977H82.3591V205.681H85.7191V207.745ZM102.989 205.465C103.981 205.465 104.853 205.665 105.605 206.065C106.357 206.449 106.949 206.953 107.381 207.577V205.681H110.765V219.073C110.765 220.305 110.517 221.401 110.021 222.361C109.525 223.337 108.781 224.105 107.789 224.665C106.797 225.241 105.597 225.529 104.189 225.529C102.301 225.529 100.749 225.089 99.533 224.209C98.333 223.329 97.653 222.129 97.493 220.609H100.829C101.005 221.217 101.381 221.697 101.957 222.049C102.549 222.417 103.261 222.601 104.093 222.601C105.069 222.601 105.861 222.305 106.469 221.713C107.077 221.137 107.381 220.257 107.381 219.073V217.009C106.949 217.633 106.349 218.153 105.581 218.569C104.829 218.985 103.965 219.193 102.989 219.193C101.869 219.193 100.845 218.905 99.917 218.329C98.989 217.753 98.253 216.945 97.709 215.905C97.181 214.849 96.917 213.641 96.917 212.281C96.917 210.937 97.181 209.745 97.709 208.705C98.253 207.665 98.981 206.865 99.893 206.305C100.821 205.745 101.853 205.465 102.989 205.465ZM107.381 212.329C107.381 211.513 107.221 210.817 106.901 210.241C106.581 209.649 106.149 209.201 105.605 208.897C105.061 208.577 104.477 208.417 103.853 208.417C103.229 208.417 102.653 208.569 102.125 208.873C101.597 209.177 101.165 209.625 100.829 210.217C100.509 210.793 100.349 211.481 100.349 212.281C100.349 213.081 100.509 213.785 100.829 214.393C101.165 214.985 101.597 215.441 102.125 215.761C102.669 216.081 103.245 216.241 103.853 216.241C104.477 216.241 105.061 216.089 105.605 215.785C106.149 215.465 106.581 215.017 106.901 214.441C107.221 213.849 107.381 213.145 107.381 212.329ZM119.951 219.193C118.671 219.193 117.519 218.913 116.495 218.353C115.471 217.777 114.663 216.969 114.071 215.929C113.495 214.889 113.207 213.689 113.207 212.329C113.207 210.969 113.503 209.769 114.095 208.729C114.703 207.689 115.527 206.889 116.567 206.329C117.607 205.753 118.767 205.465 120.047 205.465C121.327 205.465 122.487 205.753 123.527 206.329C124.567 206.889 125.383 207.689 125.975 208.729C126.583 209.769 126.887 210.969 126.887 212.329C126.887 213.689 126.575 214.889 125.951 215.929C125.343 216.969 124.511 217.777 123.455 218.353C122.415 218.913 121.247 219.193 119.951 219.193ZM119.951 216.265C120.559 216.265 121.127 216.121 121.655 215.833C122.199 215.529 122.631 215.081 122.951 214.489C123.271 213.897 123.431 213.177 123.431 212.329C123.431 211.065 123.095 210.097 122.423 209.425C121.767 208.737 120.959 208.393 119.999 208.393C119.039 208.393 118.231 208.737 117.575 209.425C116.935 210.097 116.615 211.065 116.615 212.329C116.615 213.593 116.927 214.569 117.551 215.257C118.191 215.929 118.991 216.265 119.951 216.265ZM128.487 212.281C128.487 210.937 128.751 209.745 129.279 208.705C129.823 207.665 130.551 206.865 131.463 206.305C132.391 205.745 133.423 205.465 134.559 205.465C135.551 205.465 136.415 205.665 137.151 206.065C137.903 206.465 138.503 206.969 138.951 207.577V205.681H142.335V218.977H138.951V217.033C138.519 217.657 137.919 218.177 137.151 218.593C136.399 218.993 135.527 219.193 134.535 219.193C133.415 219.193 132.391 218.905 131.463 218.329C130.551 217.753 129.823 216.945 129.279 215.905C128.751 214.849 128.487 213.641 128.487 212.281ZM138.951 212.329C138.951 211.513 138.791 210.817 138.471 210.241C138.151 209.649 137.719 209.201 137.175 208.897C136.631 208.577 136.047 208.417 135.423 208.417C134.799 208.417 134.223 208.569 133.695 208.873C133.167 209.177 132.735 209.625 132.399 210.217C132.079 210.793 131.919 211.481 131.919 212.281C131.919 213.081 132.079 213.785 132.399 214.393C132.735 214.985 133.167 215.441 133.695 215.761C134.239 216.081 134.815 216.241 135.423 216.241C136.047 216.241 136.631 216.089 137.175 215.785C137.719 215.465 138.151 215.017 138.471 214.441C138.791 213.849 138.951 213.145 138.951 212.329ZM148.977 201.217V218.977H145.617V201.217H148.977ZM157.385 219.193C156.297 219.193 155.321 219.001 154.457 218.617C153.593 218.217 152.905 217.681 152.393 217.009C151.897 216.337 151.625 215.593 151.577 214.777H154.961C155.025 215.289 155.273 215.713 155.705 216.049C156.153 216.385 156.705 216.553 157.361 216.553C158.001 216.553 158.497 216.425 158.849 216.169C159.217 215.913 159.401 215.585 159.401 215.185C159.401 214.753 159.177 214.433 158.729 214.225C158.297 214.001 157.601 213.761 156.641 213.505C155.649 213.265 154.833 213.017 154.193 212.761C153.569 212.505 153.025 212.113 152.561 211.585C152.113 211.057 151.889 210.345 151.889 209.449C151.889 208.713 152.097 208.041 152.513 207.433C152.945 206.825 153.553 206.345 154.337 205.993C155.137 205.641 156.073 205.465 157.145 205.465C158.729 205.465 159.993 205.865 160.937 206.665C161.881 207.449 162.401 208.513 162.497 209.857H159.281C159.233 209.329 159.009 208.913 158.609 208.609C158.225 208.289 157.705 208.129 157.049 208.129C156.441 208.129 155.969 208.241 155.633 208.465C155.313 208.689 155.153 209.001 155.153 209.401C155.153 209.849 155.377 210.193 155.825 210.433C156.273 210.657 156.969 210.889 157.913 211.129C158.873 211.369 159.665 211.617 160.289 211.873C160.913 212.129 161.449 212.529 161.897 213.073C162.361 213.601 162.601 214.305 162.617 215.185C162.617 215.953 162.401 216.641 161.969 217.249C161.553 217.857 160.945 218.337 160.145 218.689C159.361 219.025 158.441 219.193 157.385 219.193ZM189.526 205.681L185.638 218.977H182.014L179.59 209.689L177.166 218.977H173.518L169.606 205.681H173.014L175.366 215.809L177.91 205.681H181.462L183.958 215.785L186.31 205.681H189.526ZM193.048 204.097C192.456 204.097 191.96 203.913 191.56 203.545C191.176 203.161 190.984 202.689 190.984 202.129C190.984 201.569 191.176 201.105 191.56 200.737C191.96 200.353 192.456 200.161 193.048 200.161C193.64 200.161 194.128 200.353 194.512 200.737C194.912 201.105 195.112 201.569 195.112 202.129C195.112 202.689 194.912 203.161 194.512 203.545C194.128 203.913 193.64 204.097 193.048 204.097ZM194.704 205.681V218.977H191.344V205.681H194.704ZM201.935 208.441V214.873C201.935 215.321 202.039 215.649 202.247 215.857C202.471 216.049 202.839 216.145 203.351 216.145H204.911V218.977H202.799C199.967 218.977 198.551 217.601 198.551 214.849V208.441H196.967V205.681H198.551V202.393H201.935V205.681H204.911V208.441H201.935ZM214.816 205.489C215.824 205.489 216.72 205.713 217.504 206.161C218.288 206.593 218.896 207.241 219.328 208.105C219.776 208.953 220 209.977 220 211.177V218.977H216.64V211.633C216.64 210.577 216.376 209.769 215.848 209.209C215.32 208.633 214.6 208.345 213.688 208.345C212.76 208.345 212.024 208.633 211.48 209.209C210.952 209.769 210.688 210.577 210.688 211.633V218.977H207.328V201.217H210.688V207.337C211.12 206.761 211.696 206.313 212.416 205.993C213.136 205.657 213.936 205.489 214.816 205.489ZM241.274 212.041C241.274 212.521 241.242 212.953 241.178 213.337H231.458C231.538 214.297 231.874 215.049 232.466 215.593C233.058 216.137 233.786 216.409 234.65 216.409C235.898 216.409 236.786 215.873 237.314 214.801H240.938C240.554 216.081 239.818 217.137 238.73 217.969C237.642 218.785 236.306 219.193 234.722 219.193C233.442 219.193 232.29 218.913 231.266 218.353C230.258 217.777 229.466 216.969 228.89 215.929C228.33 214.889 228.05 213.689 228.05 212.329C228.05 210.953 228.33 209.745 228.89 208.705C229.45 207.665 230.234 206.865 231.242 206.305C232.25 205.745 233.41 205.465 234.722 205.465C235.986 205.465 237.114 205.737 238.106 206.281C239.114 206.825 239.89 207.601 240.434 208.609C240.994 209.601 241.274 210.745 241.274 212.041ZM237.794 211.081C237.778 210.217 237.466 209.529 236.858 209.017C236.25 208.489 235.506 208.225 234.626 208.225C233.794 208.225 233.09 208.481 232.514 208.993C231.954 209.489 231.61 210.185 231.482 211.081H237.794ZM242.862 212.281C242.862 210.937 243.126 209.745 243.654 208.705C244.198 207.665 244.926 206.865 245.838 206.305C246.766 205.745 247.798 205.465 248.934 205.465C249.926 205.465 250.79 205.665 251.526 206.065C252.278 206.465 252.878 206.969 253.326 207.577V205.681H256.71V218.977H253.326V217.033C252.894 217.657 252.294 218.177 251.526 218.593C250.774 218.993 249.902 219.193 248.91 219.193C247.79 219.193 246.766 218.905 245.838 218.329C244.926 217.753 244.198 216.945 243.654 215.905C243.126 214.849 242.862 213.641 242.862 212.281ZM253.326 212.329C253.326 211.513 253.166 210.817 252.846 210.241C252.526 209.649 252.094 209.201 251.55 208.897C251.006 208.577 250.422 208.417 249.798 208.417C249.174 208.417 248.598 208.569 248.07 208.873C247.542 209.177 247.11 209.625 246.774 210.217C246.454 210.793 246.294 211.481 246.294 212.281C246.294 213.081 246.454 213.785 246.774 214.393C247.11 214.985 247.542 215.441 248.07 215.761C248.614 216.081 249.19 216.241 249.798 216.241C250.422 216.241 251.006 216.089 251.55 215.785C252.094 215.465 252.526 215.017 252.846 214.441C253.166 213.849 253.326 213.145 253.326 212.329ZM265.08 219.193C263.992 219.193 263.016 219.001 262.152 218.617C261.288 218.217 260.6 217.681 260.088 217.009C259.592 216.337 259.32 215.593 259.272 214.777H262.656C262.72 215.289 262.968 215.713 263.4 216.049C263.848 216.385 264.4 216.553 265.056 216.553C265.696 216.553 266.192 216.425 266.544 216.169C266.912 215.913 267.096 215.585 267.096 215.185C267.096 214.753 266.872 214.433 266.424 214.225C265.992 214.001 265.296 213.761 264.336 213.505C263.344 213.265 262.528 213.017 261.888 212.761C261.264 212.505 260.72 212.113 260.256 211.585C259.808 211.057 259.584 210.345 259.584 209.449C259.584 208.713 259.792 208.041 260.208 207.433C260.64 206.825 261.248 206.345 262.032 205.993C262.832 205.641 263.768 205.465 264.84 205.465C266.424 205.465 267.688 205.865 268.632 206.665C269.576 207.449 270.096 208.513 270.192 209.857H266.976C266.928 209.329 266.704 208.913 266.304 208.609C265.92 208.289 265.4 208.129 264.744 208.129C264.136 208.129 263.664 208.241 263.328 208.465C263.008 208.689 262.848 209.001 262.848 209.401C262.848 209.849 263.072 210.193 263.52 210.433C263.968 210.657 264.664 210.889 265.608 211.129C266.568 211.369 267.36 211.617 267.984 211.873C268.608 212.129 269.144 212.529 269.592 213.073C270.056 213.601 270.296 214.305 270.312 215.185C270.312 215.953 270.096 216.641 269.664 217.249C269.248 217.857 268.64 218.337 267.84 218.689C267.056 219.025 266.136 219.193 265.08 219.193ZM285.43 212.041C285.43 212.521 285.398 212.953 285.334 213.337H275.614C275.694 214.297 276.03 215.049 276.622 215.593C277.214 216.137 277.942 216.409 278.806 216.409C280.054 216.409 280.942 215.873 281.47 214.801H285.094C284.71 216.081 283.974 217.137 282.886 217.969C281.798 218.785 280.462 219.193 278.878 219.193C277.598 219.193 276.446 218.913 275.422 218.353C274.414 217.777 273.622 216.969 273.046 215.929C272.486 214.889 272.206 213.689 272.206 212.329C272.206 210.953 272.486 209.745 273.046 208.705C273.606 207.665 274.39 206.865 275.398 206.305C276.406 205.745 277.566 205.465 278.878 205.465C280.142 205.465 281.27 205.737 282.262 206.281C283.27 206.825 284.046 207.601 284.59 208.609C285.15 209.601 285.43 210.745 285.43 212.041ZM281.95 211.081C281.934 210.217 281.622 209.529 281.014 209.017C280.406 208.489 279.662 208.225 278.782 208.225C277.95 208.225 277.246 208.481 276.67 208.993C276.11 209.489 275.766 210.185 275.638 211.081H281.95Z" fill="white"/>
<defs>
<clipPath id="clip0_64_190">
<rect width="227" height="63" fill="white" transform="translate(35 32.9771)"/>
</clipPath>
</defs>
</svg>
