<svg width="472" height="268" viewBox="0 0 472 268" fill="none" xmlns="http://www.w3.org/2000/svg">
<rect width="472" height="268" rx="20" fill="#F33E33"/>
<g clip-path="url(#clip0_64_288)">
<path d="M153.745 65.4649C140.946 65.868 128.937 68.9947 118.044 75.9288C116.569 76.8679 115.459 78.2215 114.203 79.4098C113.646 79.9362 113.094 80.9036 112.136 80.1681C111.261 79.4956 111.501 78.5817 111.938 77.7148C113.401 74.8154 115.699 72.6314 118.203 70.6843C126.13 64.5163 135.345 61.4224 145.097 59.7086C157.546 57.5205 169.5 59.3434 181.044 64.2999C181.445 64.4724 181.858 64.9066 182.273 64.5505C182.86 64.0483 182.225 63.6137 182.038 63.1736C180.552 59.6584 177.849 56.9846 175.651 53.9619C174.792 52.7809 173.14 51.3867 174.657 50.1427C176.046 49.0014 177.119 50.8987 178.052 51.8638C181.722 55.6611 184.43 60.2227 187.803 64.2638C189.538 66.3423 188.683 68.7752 186.199 69.7722C182.634 71.2029 178.844 71.3604 175.115 71.7457C167.632 72.5191 160.229 73.9348 152.707 74.3849C150.82 74.4976 148.944 74.557 147.06 74.4862C146.453 74.4634 145.752 74.4511 145.584 73.7257C145.392 72.893 146.034 72.572 146.691 72.2817C150.607 70.5528 154.852 70.3314 158.979 69.5727C161.049 69.1919 163.148 68.955 165.199 68.5053C165.9 68.352 167.193 68.4455 167.06 67.3394C166.956 66.4537 165.812 66.4647 165.004 66.3287C161.279 65.7464 157.515 65.4576 153.745 65.4649Z" fill="#312F2F"/>
<circle cx="232.5" cy="62.5229" r="22.5" fill="#FCEDED"/>
<path d="M225.015 63.4979C225.018 63.5656 225.008 63.6333 224.984 63.6969C224.961 63.7605 224.924 63.8186 224.878 63.8677C224.831 63.9168 224.775 63.9559 224.712 63.9826C224.65 64.0093 224.583 64.023 224.515 64.0229H219C218.774 64.0232 218.555 63.9472 218.378 63.8072C218.201 63.6672 218.077 63.4714 218.025 63.2516C217.993 63.1013 217.994 62.9456 218.029 62.7959C218.064 62.6461 218.132 62.5059 218.228 62.3854C219.11 61.2154 220.28 60.2941 221.625 59.7116C221.035 59.1734 220.582 58.5015 220.305 57.7523C220.027 57.0031 219.934 56.1983 220.031 55.4055C220.129 54.6126 220.415 53.8546 220.866 53.1951C221.317 52.5356 221.919 51.9937 222.623 51.6149C223.326 51.236 224.11 51.0312 224.909 51.0176C225.707 51.004 226.498 51.1819 227.214 51.5366C227.929 51.8913 228.55 52.4123 229.023 53.0561C229.496 53.6998 229.808 54.4475 229.933 55.2366C229.949 55.3428 229.93 55.4512 229.878 55.5455C229.827 55.6399 229.747 55.7149 229.649 55.7591C228.262 56.4004 227.087 57.4249 226.263 58.712C225.44 59.999 225.001 61.4948 225 63.0229C225 63.1829 225 63.3404 225.015 63.4979ZM247.765 62.3841C246.885 61.2155 245.717 60.2947 244.375 59.7116C244.965 59.1734 245.418 58.5015 245.695 57.7523C245.973 57.0031 246.066 56.1983 245.969 55.4055C245.871 54.6126 245.585 53.8546 245.134 53.1951C244.683 52.5356 244.081 51.9937 243.377 51.6149C242.674 51.236 241.89 51.0312 241.092 51.0176C240.293 51.004 239.502 51.1819 238.786 51.5366C238.071 51.8913 237.45 52.4123 236.977 53.0561C236.504 53.6998 236.192 54.4475 236.068 55.2366C236.051 55.3428 236.07 55.4512 236.122 55.5455C236.173 55.6399 236.253 55.7149 236.351 55.7591C237.738 56.4004 238.913 57.4249 239.737 58.712C240.56 59.999 240.999 61.4948 241 63.0229C241 63.1829 241 63.3404 240.985 63.4979C240.982 63.5656 240.992 63.6333 241.016 63.6969C241.039 63.7605 241.076 63.8186 241.122 63.8677C241.169 63.9168 241.225 63.9559 241.288 63.9826C241.35 64.0093 241.417 64.023 241.485 64.0229H247C247.226 64.0232 247.445 63.9472 247.622 63.8072C247.799 63.6672 247.923 63.4714 247.975 63.2516C248.007 63.101 248.006 62.945 247.971 62.795C247.935 62.645 247.867 62.5047 247.771 62.3841H247.765ZM236.64 67.7816C237.636 67.0191 238.367 65.9637 238.732 64.7638C239.097 63.564 239.077 62.2799 238.674 61.0921C238.272 59.9044 237.507 58.8726 236.488 58.1419C235.469 57.4111 234.246 57.0181 232.992 57.0181C231.738 57.0181 230.515 57.4111 229.496 58.1419C228.477 58.8726 227.712 59.9044 227.309 61.0921C226.907 62.2799 226.887 63.564 227.251 64.7638C227.616 65.9637 228.348 67.0191 229.344 67.7816C227.577 68.5472 226.102 69.8583 225.134 71.5229C225.046 71.6749 225 71.8474 225 72.023C225 72.1985 225.046 72.371 225.134 72.523C225.222 72.675 225.348 72.8013 225.5 72.889C225.652 72.9768 225.824 73.0229 226 73.0229H240C240.176 73.0229 240.348 72.9768 240.5 72.889C240.652 72.8013 240.778 72.675 240.866 72.523C240.954 72.371 241 72.1985 241 72.023C241 71.8474 240.954 71.6749 240.866 71.5229C239.896 69.8572 238.418 68.546 236.649 67.7816H236.64Z" fill="#343330"/>
<path d="M258.031 35.6792H244.969C244.654 35.6792 244.352 35.7911 244.129 35.9904C243.906 36.1897 243.781 36.4599 243.781 36.7417V46.3042C243.781 46.586 243.906 46.8562 244.129 47.0555C244.352 47.2548 244.654 47.3667 244.969 47.3667H258.031C258.346 47.3667 258.648 47.2548 258.871 47.0555C259.094 46.8562 259.219 46.586 259.219 46.3042V36.7417C259.219 36.4599 259.094 36.1897 258.871 35.9904C258.648 35.7911 258.346 35.6792 258.031 35.6792ZM248.888 42.6917C249.013 42.7762 249.097 42.9021 249.119 43.0416C249.141 43.181 249.101 43.3227 249.006 43.4354C248.912 43.5482 248.771 43.6227 248.615 43.6426C248.459 43.6625 248.301 43.6262 248.175 43.5417L245.8 41.9479C245.726 41.8985 245.666 41.8343 245.625 41.7605C245.584 41.6868 245.562 41.6054 245.562 41.5229C245.562 41.4405 245.584 41.3591 245.625 41.2854C245.666 41.2116 245.726 41.1474 245.8 41.0979L248.175 39.5042C248.301 39.4197 248.459 39.3834 248.615 39.4033C248.771 39.4232 248.912 39.4977 249.006 39.6104C249.101 39.7232 249.141 39.8648 249.119 40.0043C249.097 40.1438 249.013 40.2697 248.888 40.3542L247.146 41.5229L248.888 42.6917ZM253.258 37.9503L250.883 45.3878C250.863 45.4561 250.828 45.52 250.78 45.576C250.731 45.6319 250.671 45.6787 250.603 45.7135C250.534 45.7484 250.458 45.7707 250.38 45.7791C250.301 45.7874 250.222 45.7818 250.146 45.7623C250.07 45.7429 249.999 45.7101 249.938 45.6659C249.876 45.6217 249.825 45.567 249.787 45.5049C249.75 45.4428 249.726 45.3747 249.719 45.3044C249.711 45.2341 249.719 45.1631 249.742 45.0956L252.117 37.6581C252.162 37.5251 252.265 37.4135 252.401 37.3471C252.538 37.2808 252.698 37.265 252.848 37.3033C252.997 37.3416 253.124 37.4308 253.201 37.5518C253.277 37.6727 253.298 37.8158 253.258 37.9503ZM257.2 41.9479L254.825 43.5417C254.699 43.6262 254.541 43.6625 254.385 43.6426C254.229 43.6227 254.088 43.5482 253.994 43.4354C253.899 43.3227 253.859 43.181 253.881 43.0416C253.903 42.9021 253.987 42.7762 254.112 42.6917L255.854 41.5229L254.112 40.3542C254.05 40.3123 253.998 40.2599 253.958 40.1999C253.918 40.1398 253.892 40.0734 253.881 40.0043C253.87 39.9353 253.874 39.8649 253.894 39.7974C253.913 39.7298 253.947 39.6663 253.994 39.6104C254.041 39.5546 254.099 39.5076 254.166 39.4721C254.233 39.4365 254.308 39.4132 254.385 39.4033C254.462 39.3934 254.541 39.3973 254.616 39.4146C254.692 39.4319 254.763 39.4623 254.825 39.5042L257.2 41.0979C257.274 41.1474 257.334 41.2116 257.375 41.2854C257.416 41.3591 257.438 41.4405 257.438 41.5229C257.438 41.6054 257.416 41.6868 257.375 41.7605C257.334 41.8343 257.274 41.8985 257.2 41.9479Z" fill="#343330"/>
<path d="M203.25 41.4604V42.5854C203.25 42.8838 203.118 43.17 202.884 43.3809C202.649 43.5919 202.332 43.7104 202 43.7104V40.3354C202.332 40.3354 202.649 40.454 202.884 40.665C203.118 40.8759 203.25 41.1621 203.25 41.4604ZM216.375 38.0854V45.9604C216.375 46.2588 216.243 46.545 216.009 46.7559C215.774 46.9669 215.457 47.0854 215.125 47.0854H198.875C198.543 47.0854 198.226 46.9669 197.991 46.7559C197.757 46.545 197.625 46.2588 197.625 45.9604V38.0854C197.625 37.7871 197.757 37.5009 197.991 37.29C198.226 37.079 198.543 36.9604 198.875 36.9604H215.125C215.457 36.9604 215.774 37.079 216.009 37.29C216.243 37.5009 216.375 37.7871 216.375 38.0854ZM204.5 41.4604C204.5 40.8637 204.237 40.2914 203.768 39.8695C203.299 39.4475 202.663 39.2104 202 39.2104H201.375C201.209 39.2104 201.05 39.2697 200.933 39.3752C200.816 39.4807 200.75 39.6238 200.75 39.7729V44.2729C200.75 44.4221 200.816 44.5652 200.933 44.6707C201.05 44.7762 201.209 44.8354 201.375 44.8354H202C202.663 44.8354 203.299 44.5984 203.768 44.1764C204.237 43.7545 204.5 43.1822 204.5 42.5854V41.4604ZM207 41.4604V40.3354H208.25C208.416 40.3354 208.575 40.2762 208.692 40.1707C208.809 40.0652 208.875 39.9221 208.875 39.7729C208.875 39.6238 208.809 39.4807 208.692 39.3752C208.575 39.2697 208.416 39.2104 208.25 39.2104H206.375C206.209 39.2104 206.05 39.2697 205.933 39.3752C205.816 39.4807 205.75 39.6238 205.75 39.7729V44.2729C205.75 44.4221 205.816 44.5652 205.933 44.6707C206.05 44.7762 206.209 44.8354 206.375 44.8354H208.25C208.416 44.8354 208.575 44.7762 208.692 44.6707C208.809 44.5652 208.875 44.4221 208.875 44.2729C208.875 44.1238 208.809 43.9807 208.692 43.8752C208.575 43.7697 208.416 43.7104 208.25 43.7104H207V42.5854H207.625C207.791 42.5854 207.95 42.5262 208.067 42.4207C208.184 42.3152 208.25 42.1721 208.25 42.0229C208.25 41.8738 208.184 41.7307 208.067 41.6252C207.95 41.5197 207.791 41.4604 207.625 41.4604H207ZM213.42 39.2315C213.26 39.1911 213.089 39.2093 212.945 39.2822C212.8 39.3551 212.693 39.4768 212.648 39.6204L211.844 42.1952L211.039 39.6204C210.994 39.4773 210.887 39.3564 210.743 39.2839C210.598 39.2114 210.428 39.1934 210.269 39.2338C210.11 39.2741 209.975 39.3696 209.894 39.4992C209.812 39.6289 209.792 39.7822 209.836 39.9255L211.242 44.4255C211.279 44.5435 211.358 44.6474 211.466 44.7214C211.575 44.7954 211.708 44.8354 211.844 44.8354C211.98 44.8354 212.112 44.7954 212.221 44.7214C212.33 44.6474 212.408 44.5435 212.445 44.4255L213.852 39.9255C213.897 39.7819 213.876 39.6282 213.795 39.498C213.714 39.3679 213.579 39.272 213.42 39.2315Z" fill="#343330"/>
<path d="M253.5 74.8042C250.346 74.8042 247.875 76.63 247.875 78.9604V86.0854C247.875 88.4159 250.346 90.2417 253.5 90.2417C256.654 90.2417 259.125 88.4159 259.125 86.0854V78.9604C259.125 76.63 256.654 74.8042 253.5 74.8042ZM258.188 82.5229C258.188 83.2369 257.726 83.965 256.921 84.5209C256.015 85.1466 254.8 85.4917 253.5 85.4917C252.2 85.4917 250.985 85.1466 250.079 84.5209C249.274 83.965 248.812 83.2369 248.812 82.5229V81.2879C249.812 82.4012 251.521 83.1167 253.5 83.1167C255.479 83.1167 257.188 82.3983 258.188 81.2879V82.5229ZM256.921 88.0834C256.015 88.7091 254.8 89.0542 253.5 89.0542C252.2 89.0542 250.985 88.7091 250.079 88.0834C249.274 87.5275 248.812 86.7994 248.812 86.0854V84.8504C249.812 85.9637 251.521 86.6792 253.5 86.6792C255.479 86.6792 257.188 85.9608 258.188 84.8504V86.0854C258.188 86.7994 257.726 87.5275 256.921 88.0834Z" fill="#343330"/>
<circle cx="84.5" cy="72.5229" r="22.5" fill="#F5F3F3"/>
<path d="M88 66.023C88 65.7578 88.1054 65.5034 88.2929 65.3159C88.4804 65.1283 88.7348 65.023 89 65.023H100C100.265 65.023 100.52 65.1283 100.707 65.3159C100.895 65.5034 101 65.7578 101 66.023C101 66.2882 100.895 66.5425 100.707 66.7301C100.52 66.9176 100.265 67.023 100 67.023H89C88.7348 67.023 88.4804 66.9176 88.2929 66.7301C88.1054 66.5425 88 66.2882 88 66.023ZM100 71.023H89C88.7348 71.023 88.4804 71.1283 88.2929 71.3159C88.1054 71.5034 88 71.7578 88 72.023C88 72.2882 88.1054 72.5425 88.2929 72.7301C88.4804 72.9176 88.7348 73.023 89 73.023H100C100.265 73.023 100.52 72.9176 100.707 72.7301C100.895 72.5425 101 72.2882 101 72.023C101 71.7578 100.895 71.5034 100.707 71.3159C100.52 71.1283 100.265 71.023 100 71.023ZM100 77.023H92C91.7348 77.023 91.4804 77.1283 91.2929 77.3159C91.1054 77.5034 91 77.7578 91 78.023C91 78.2882 91.1054 78.5425 91.2929 78.7301C91.4804 78.9176 91.7348 79.023 92 79.023H100C100.265 79.023 100.52 78.9176 100.707 78.7301C100.895 78.5425 101 78.2882 101 78.023C101 77.7578 100.895 77.5034 100.707 77.3159C100.52 77.1283 100.265 77.023 100 77.023ZM82.6613 73.773C83.6537 73.0086 84.382 71.9527 84.744 70.7534C85.106 69.5541 85.0836 68.2716 84.6798 67.0857C84.2761 65.8998 83.5113 64.8701 82.4927 64.1409C81.474 63.4116 80.2527 63.0195 79 63.0195C77.7473 63.0195 76.526 63.4116 75.5074 64.1409C74.4888 64.8701 73.724 65.8998 73.3202 67.0857C72.9164 68.2716 72.894 69.5541 73.256 70.7534C73.618 71.9527 74.3463 73.0086 75.3388 73.773C72.7613 74.8642 70.73 77.0605 70.0313 79.773C69.9931 79.9208 69.9893 80.0754 70.0201 80.2249C70.0509 80.3744 70.1156 80.5149 70.2091 80.6355C70.3026 80.7562 70.4225 80.8539 70.5596 80.921C70.6967 80.9882 70.8474 81.0231 71 81.023H87C87.1527 81.0231 87.3033 80.9882 87.4404 80.921C87.5775 80.8539 87.6974 80.7562 87.7909 80.6355C87.8844 80.5149 87.9491 80.3744 87.9799 80.2249C88.0107 80.0754 88.0069 79.9208 87.9688 79.773C87.27 77.0592 85.2388 74.863 82.6613 73.773Z" fill="#343330"/>
</g>
<path d="M38.616 140H36.184V128.512H43.608V130.624H38.616V133.52H42.824V135.616H38.616V140ZM52.8298 137.888V140H45.1018V128.512H52.7178V130.624H47.5338V133.04H52.2378V135.136H47.5338V137.888H52.8298ZM62.2151 140L61.3511 137.536H56.8871L56.0071 140H53.5591L57.8791 128.512H60.5351L64.8231 140H62.2151ZM59.1431 131.168L57.5751 135.6H60.6791L59.1431 131.168ZM70.1983 140H67.7663V130.704H64.1503V128.512H73.8303V130.704H70.1983V140ZM84.529 128.512V135.632C84.529 138.352 82.801 140.24 79.809 140.24C76.769 140.24 75.073 138.352 75.073 135.632V128.512H77.505V135.68C77.505 137.104 78.193 138.064 79.809 138.064C81.409 138.064 82.097 137.104 82.097 135.68V128.512H84.529ZM89.111 140H86.679V128.512H91.175C94.071 128.512 95.751 129.856 95.751 132.24C95.751 133.792 94.791 135.024 93.159 135.568L96.119 140H93.223L90.631 135.936H89.111V140ZM89.111 130.528V133.936H91.063C92.535 133.936 93.319 133.36 93.319 132.24C93.319 131.104 92.535 130.528 91.063 130.528H89.111ZM105.184 137.888V140H97.4561V128.512H105.072V130.624H99.8881V133.04H104.592V135.136H99.8881V137.888H105.184Z" fill="white"/>
<path d="M48.056 153.248V155.96H43.592V170H40.232V155.96H35.768V153.248H48.056ZM49.6436 163.304C49.6436 161.96 49.9076 160.768 50.4356 159.728C50.9796 158.688 51.7076 157.888 52.6196 157.328C53.5476 156.768 54.5796 156.488 55.7156 156.488C56.7076 156.488 57.5716 156.688 58.3076 157.088C59.0596 157.488 59.6596 157.992 60.1076 158.6V156.704H63.4916V170H60.1076V168.056C59.6756 168.68 59.0756 169.2 58.3076 169.616C57.5556 170.016 56.6836 170.216 55.6916 170.216C54.5716 170.216 53.5476 169.928 52.6196 169.352C51.7076 168.776 50.9796 167.968 50.4356 166.928C49.9076 165.872 49.6436 164.664 49.6436 163.304ZM60.1076 163.352C60.1076 162.536 59.9476 161.84 59.6276 161.264C59.3076 160.672 58.8756 160.224 58.3316 159.92C57.7876 159.6 57.2036 159.44 56.5796 159.44C55.9556 159.44 55.3796 159.592 54.8516 159.896C54.3236 160.2 53.8916 160.648 53.5556 161.24C53.2356 161.816 53.0756 162.504 53.0756 163.304C53.0756 164.104 53.2356 164.808 53.5556 165.416C53.8916 166.008 54.3236 166.464 54.8516 166.784C55.3956 167.104 55.9716 167.264 56.5796 167.264C57.2036 167.264 57.7876 167.112 58.3316 166.808C58.8756 166.488 59.3076 166.04 59.6276 165.464C59.9476 164.872 60.1076 164.168 60.1076 163.352ZM74.6452 170L70.1332 164.336V170H66.7732V152.24H70.1332V162.344L74.5972 156.704H78.9652L73.1092 163.376L79.0132 170H74.6452ZM84.2928 156.704V170H80.9328V156.704H84.2928ZM104.262 156.512C105.894 156.512 107.206 157.016 108.198 158.024C109.206 159.016 109.71 160.408 109.71 162.2V170H106.35V162.656C106.35 161.616 106.086 160.824 105.558 160.28C105.03 159.72 104.31 159.44 103.398 159.44C102.486 159.44 101.758 159.72 101.214 160.28C100.686 160.824 100.422 161.616 100.422 162.656V170H97.0618V162.656C97.0618 161.616 96.7978 160.824 96.2698 160.28C95.7418 159.72 95.0218 159.44 94.1098 159.44C93.1818 159.44 92.4458 159.72 91.9018 160.28C91.3738 160.824 91.1098 161.616 91.1098 162.656V170H87.7498V156.704H91.1098V158.312C91.5418 157.752 92.0938 157.312 92.7658 156.992C93.4538 156.672 94.2058 156.512 95.0218 156.512C96.0618 156.512 96.9898 156.736 97.8058 157.184C98.6218 157.616 99.2538 158.24 99.7018 159.056C100.134 158.288 100.758 157.672 101.574 157.208C102.406 156.744 103.302 156.512 104.262 156.512ZM124.305 167.336C125.665 167.336 126.553 166.728 126.969 165.512H130.593C130.257 166.808 129.633 167.864 128.721 168.68C127.825 169.496 126.697 169.984 125.337 170.144V171.08C126.217 171.08 126.953 171.304 127.545 171.752C128.153 172.2 128.457 172.848 128.457 173.696C128.457 174.56 128.145 175.224 127.521 175.688C126.913 176.152 126.161 176.384 125.265 176.384H121.857V174.416H124.713C125.097 174.416 125.385 174.36 125.577 174.248C125.785 174.136 125.889 173.936 125.889 173.648C125.889 173.36 125.785 173.16 125.577 173.048C125.385 172.952 125.097 172.904 124.713 172.904H123.225V170.144C122.137 169.984 121.177 169.608 120.345 169.016C119.529 168.408 118.889 167.624 118.425 166.664C117.977 165.688 117.753 164.584 117.753 163.352C117.753 161.976 118.033 160.776 118.593 159.752C119.153 158.712 119.929 157.912 120.921 157.352C121.913 156.776 123.049 156.488 124.329 156.488C125.977 156.488 127.337 156.904 128.409 157.736C129.497 158.552 130.225 159.704 130.593 161.192H126.969C126.777 160.616 126.449 160.168 125.985 159.848C125.537 159.512 124.977 159.344 124.305 159.344C123.345 159.344 122.585 159.696 122.025 160.4C121.465 161.088 121.185 162.072 121.185 163.352C121.185 164.616 121.465 165.6 122.025 166.304C122.585 166.992 123.345 167.336 124.305 167.336ZM132.19 163.304C132.19 161.96 132.454 160.768 132.982 159.728C133.526 158.688 134.254 157.888 135.166 157.328C136.094 156.768 137.126 156.488 138.262 156.488C139.254 156.488 140.118 156.688 140.854 157.088C141.606 157.488 142.206 157.992 142.654 158.6V156.704H146.038V170H142.654V168.056C142.222 168.68 141.622 169.2 140.854 169.616C140.102 170.016 139.23 170.216 138.238 170.216C137.118 170.216 136.094 169.928 135.166 169.352C134.254 168.776 133.526 167.968 132.982 166.928C132.454 165.872 132.19 164.664 132.19 163.304ZM142.654 163.352C142.654 162.536 142.494 161.84 142.174 161.264C141.854 160.672 141.422 160.224 140.878 159.92C140.334 159.6 139.75 159.44 139.126 159.44C138.502 159.44 137.926 159.592 137.398 159.896C136.87 160.2 136.438 160.648 136.102 161.24C135.782 161.816 135.622 162.504 135.622 163.304C135.622 164.104 135.782 164.808 136.102 165.416C136.438 166.008 136.87 166.464 137.398 166.784C137.942 167.104 138.518 167.264 139.126 167.264C139.75 167.264 140.334 167.112 140.878 166.808C141.422 166.488 141.854 166.04 142.174 165.464C142.494 164.872 142.654 164.168 142.654 163.352ZM152.68 152.24V170H149.32V152.24H152.68ZM159.504 156.704V170H156.144V156.704H159.504ZM169.105 171.08C169.985 171.08 170.721 171.304 171.313 171.752C171.921 172.2 172.225 172.848 172.225 173.696C172.225 174.56 171.913 175.224 171.289 175.688C170.681 176.152 169.929 176.384 169.033 176.384H165.625V174.416H168.481C168.865 174.416 169.153 174.36 169.345 174.248C169.553 174.136 169.657 173.936 169.657 173.648C169.657 173.36 169.553 173.16 169.345 173.048C169.153 172.952 168.865 172.904 168.481 172.904H166.993V170.144C165.617 169.968 164.497 169.48 163.633 168.68C162.769 167.88 162.305 166.92 162.241 165.8H165.625C165.689 166.312 165.937 166.736 166.369 167.072C166.817 167.408 167.369 167.576 168.025 167.576C168.665 167.576 169.161 167.448 169.513 167.192C169.881 166.936 170.065 166.608 170.065 166.208C170.065 165.776 169.841 165.456 169.393 165.248C168.961 165.024 168.265 164.784 167.305 164.528C166.313 164.288 165.497 164.04 164.857 163.784C164.233 163.528 163.689 163.136 163.225 162.608C162.777 162.08 162.553 161.368 162.553 160.472C162.553 159.736 162.761 159.064 163.177 158.456C163.609 157.848 164.217 157.368 165.001 157.016C165.801 156.664 166.737 156.488 167.809 156.488C169.393 156.488 170.657 156.888 171.601 157.688C172.545 158.472 173.065 159.536 173.161 160.88H169.945C169.897 160.352 169.673 159.936 169.273 159.632C168.889 159.312 168.369 159.152 167.713 159.152C167.105 159.152 166.633 159.264 166.297 159.488C165.977 159.712 165.817 160.024 165.817 160.424C165.817 160.872 166.041 161.216 166.489 161.456C166.937 161.68 167.633 161.912 168.577 162.152C169.537 162.392 170.329 162.64 170.953 162.896C171.577 163.152 172.113 163.552 172.561 164.096C173.025 164.624 173.265 165.328 173.281 166.208C173.281 167.232 172.905 168.104 172.153 168.824C171.417 169.544 170.401 169.984 169.105 170.144V171.08ZM192.551 156.512C194.183 156.512 195.495 157.016 196.487 158.024C197.495 159.016 197.999 160.408 197.999 162.2V170H194.639V162.656C194.639 161.616 194.375 160.824 193.847 160.28C193.319 159.72 192.599 159.44 191.687 159.44C190.775 159.44 190.047 159.72 189.503 160.28C188.975 160.824 188.711 161.616 188.711 162.656V170H185.351V162.656C185.351 161.616 185.087 160.824 184.559 160.28C184.031 159.72 183.311 159.44 182.399 159.44C181.471 159.44 180.735 159.72 180.191 160.28C179.663 160.824 179.399 161.616 179.399 162.656V170H176.039V156.704H179.399V158.312C179.831 157.752 180.383 157.312 181.055 156.992C181.743 156.672 182.495 156.512 183.311 156.512C184.351 156.512 185.279 156.736 186.095 157.184C186.911 157.616 187.543 158.24 187.991 159.056C188.423 158.288 189.047 157.672 189.863 157.208C190.695 156.744 191.591 156.512 192.551 156.512ZM200.323 163.304C200.323 161.96 200.587 160.768 201.115 159.728C201.659 158.688 202.387 157.888 203.299 157.328C204.227 156.768 205.259 156.488 206.395 156.488C207.387 156.488 208.251 156.688 208.987 157.088C209.739 157.488 210.339 157.992 210.787 158.6V156.704H214.171V170H210.787V168.056C210.355 168.68 209.755 169.2 208.987 169.616C208.235 170.016 207.363 170.216 206.371 170.216C205.251 170.216 204.227 169.928 203.299 169.352C202.387 168.776 201.659 167.968 201.115 166.928C200.587 165.872 200.323 164.664 200.323 163.304ZM210.787 163.352C210.787 162.536 210.627 161.84 210.307 161.264C209.987 160.672 209.555 160.224 209.011 159.92C208.467 159.6 207.883 159.44 207.259 159.44C206.635 159.44 206.059 159.592 205.531 159.896C205.003 160.2 204.571 160.648 204.235 161.24C203.915 161.816 203.755 162.504 203.755 163.304C203.755 164.104 203.915 164.808 204.235 165.416C204.571 166.008 205.003 166.464 205.531 166.784C206.075 167.104 206.651 167.264 207.259 167.264C207.883 167.264 208.467 167.112 209.011 166.808C209.555 166.488 209.987 166.04 210.307 165.464C210.627 164.872 210.787 164.168 210.787 163.352ZM222.541 170.216C221.453 170.216 220.477 170.024 219.613 169.64C218.749 169.24 218.061 168.704 217.549 168.032C217.053 167.36 216.781 166.616 216.733 165.8H220.117C220.181 166.312 220.429 166.736 220.861 167.072C221.309 167.408 221.861 167.576 222.517 167.576C223.157 167.576 223.653 167.448 224.005 167.192C224.373 166.936 224.557 166.608 224.557 166.208C224.557 165.776 224.333 165.456 223.885 165.248C223.453 165.024 222.757 164.784 221.797 164.528C220.805 164.288 219.989 164.04 219.349 163.784C218.725 163.528 218.181 163.136 217.717 162.608C217.269 162.08 217.045 161.368 217.045 160.472C217.045 159.736 217.253 159.064 217.669 158.456C218.101 157.848 218.709 157.368 219.493 157.016C220.293 156.664 221.229 156.488 222.301 156.488C223.885 156.488 225.149 156.888 226.093 157.688C227.037 158.472 227.557 159.536 227.653 160.88H224.437C224.389 160.352 224.165 159.936 223.765 159.632C223.381 159.312 222.861 159.152 222.205 159.152C221.597 159.152 221.125 159.264 220.789 159.488C220.469 159.712 220.309 160.024 220.309 160.424C220.309 160.872 220.533 161.216 220.981 161.456C221.429 161.68 222.125 161.912 223.069 162.152C224.029 162.392 224.821 162.64 225.445 162.896C226.069 163.152 226.605 163.552 227.053 164.096C227.517 164.624 227.757 165.328 227.773 166.208C227.773 166.976 227.557 167.664 227.125 168.272C226.709 168.88 226.101 169.36 225.301 169.712C224.517 170.048 223.597 170.216 222.541 170.216ZM234.035 156.704V170H230.675V156.704H234.035ZM244.86 156.512C246.444 156.512 247.724 157.016 248.7 158.024C249.676 159.016 250.164 160.408 250.164 162.2V170H246.804V162.656C246.804 161.6 246.54 160.792 246.012 160.232C245.484 159.656 244.764 159.368 243.852 159.368C242.924 159.368 242.188 159.656 241.644 160.232C241.116 160.792 240.852 161.6 240.852 162.656V170H237.492V156.704H240.852V158.36C241.3 157.784 241.868 157.336 242.556 157.016C243.26 156.68 244.028 156.512 244.86 156.512ZM256.863 156.704V170H253.503V156.704H256.863ZM273.911 170L269.399 164.336V170H266.039V152.24H269.399V162.344L273.863 156.704H278.231L272.375 163.376L278.279 170H273.911ZM285.958 170.216C284.678 170.216 283.526 169.936 282.502 169.376C281.478 168.8 280.67 167.992 280.078 166.952C279.502 165.912 279.214 164.712 279.214 163.352C279.214 161.992 279.51 160.792 280.102 159.752C280.71 158.712 281.534 157.912 282.574 157.352C283.614 156.776 284.774 156.488 286.054 156.488C287.334 156.488 288.494 156.776 289.534 157.352C290.574 157.912 291.39 158.712 291.982 159.752C292.59 160.792 292.894 161.992 292.894 163.352C292.894 164.712 292.582 165.912 291.958 166.952C291.35 167.992 290.518 168.8 289.462 169.376C288.422 169.936 287.254 170.216 285.958 170.216ZM285.958 167.288C286.566 167.288 287.134 167.144 287.662 166.856C288.206 166.552 288.638 166.104 288.958 165.512C289.278 164.92 289.438 164.2 289.438 163.352C289.438 162.088 289.102 161.12 288.43 160.448C287.774 159.76 286.966 159.416 286.006 159.416C285.046 159.416 284.238 159.76 283.582 160.448C282.942 161.12 282.622 162.088 282.622 163.352C282.622 164.616 282.934 165.592 283.558 166.28C284.198 166.952 284.998 167.288 285.958 167.288ZM298.719 152.24V170H295.359V152.24H298.719ZM301.175 163.304C301.175 161.96 301.439 160.768 301.967 159.728C302.511 158.688 303.239 157.888 304.151 157.328C305.079 156.768 306.111 156.488 307.247 156.488C308.239 156.488 309.103 156.688 309.839 157.088C310.591 157.488 311.191 157.992 311.639 158.6V156.704H315.023V170H311.639V168.056C311.207 168.68 310.607 169.2 309.839 169.616C309.087 170.016 308.215 170.216 307.223 170.216C306.103 170.216 305.079 169.928 304.151 169.352C303.239 168.776 302.511 167.968 301.967 166.928C301.439 165.872 301.175 164.664 301.175 163.304ZM311.639 163.352C311.639 162.536 311.479 161.84 311.159 161.264C310.839 160.672 310.407 160.224 309.863 159.92C309.319 159.6 308.735 159.44 308.111 159.44C307.487 159.44 306.911 159.592 306.383 159.896C305.855 160.2 305.423 160.648 305.087 161.24C304.767 161.816 304.607 162.504 304.607 163.304C304.607 164.104 304.767 164.808 305.087 165.416C305.423 166.008 305.855 166.464 306.383 166.784C306.927 167.104 307.503 167.264 308.111 167.264C308.735 167.264 309.319 167.112 309.863 166.808C310.407 166.488 310.839 166.04 311.159 165.464C311.479 164.872 311.639 164.168 311.639 163.352ZM331.024 156.704L322.792 176.288H319.216L322.096 169.664L316.768 156.704H320.536L323.968 165.992L327.448 156.704H331.024ZM336.196 152.24V170H332.836V152.24H336.196ZM343.019 156.704V170H339.659V156.704H343.019ZM354.348 170L349.836 164.336V170H346.476V152.24H349.836V162.344L354.3 156.704H358.668L352.812 163.376L358.716 170H354.348ZM363.852 152.24V170H360.492V152.24H363.852ZM366.308 163.304C366.308 161.96 366.572 160.768 367.1 159.728C367.644 158.688 368.372 157.888 369.284 157.328C370.212 156.768 371.244 156.488 372.38 156.488C373.372 156.488 374.236 156.688 374.972 157.088C375.724 157.488 376.324 157.992 376.772 158.6V156.704H380.156V170H376.772V168.056C376.34 168.68 375.74 169.2 374.972 169.616C374.22 170.016 373.348 170.216 372.356 170.216C371.236 170.216 370.212 169.928 369.284 169.352C368.372 168.776 367.644 167.968 367.1 166.928C366.572 165.872 366.308 164.664 366.308 163.304ZM376.772 163.352C376.772 162.536 376.612 161.84 376.292 161.264C375.972 160.672 375.54 160.224 374.996 159.92C374.452 159.6 373.868 159.44 373.244 159.44C372.62 159.44 372.044 159.592 371.516 159.896C370.988 160.2 370.556 160.648 370.22 161.24C369.9 161.816 369.74 162.504 369.74 163.304C369.74 164.104 369.9 164.808 370.22 165.416C370.556 166.008 370.988 166.464 371.516 166.784C372.06 167.104 372.636 167.264 373.244 167.264C373.868 167.264 374.452 167.112 374.996 166.808C375.54 166.488 375.972 166.04 376.292 165.464C376.612 164.872 376.772 164.168 376.772 163.352ZM42.56 194.216C41.28 194.216 40.128 193.936 39.104 193.376C38.08 192.8 37.272 191.992 36.68 190.952C36.104 189.912 35.816 188.712 35.816 187.352C35.816 185.992 36.112 184.792 36.704 183.752C37.312 182.712 38.136 181.912 39.176 181.352C40.216 180.776 41.376 180.488 42.656 180.488C43.936 180.488 45.096 180.776 46.136 181.352C47.176 181.912 47.992 182.712 48.584 183.752C49.192 184.792 49.496 185.992 49.496 187.352C49.496 188.712 49.184 189.912 48.56 190.952C47.952 191.992 47.12 192.8 46.064 193.376C45.024 193.936 43.856 194.216 42.56 194.216ZM42.56 191.288C43.168 191.288 43.736 191.144 44.264 190.856C44.808 190.552 45.24 190.104 45.56 189.512C45.88 188.92 46.04 188.2 46.04 187.352C46.04 186.088 45.704 185.12 45.032 184.448C44.376 183.76 43.568 183.416 42.608 183.416C41.648 183.416 40.84 183.76 40.184 184.448C39.544 185.12 39.224 186.088 39.224 187.352C39.224 188.616 39.536 189.592 40.16 190.28C40.8 190.952 41.6 191.288 42.56 191.288ZM55.3207 182.624C55.7527 182.016 56.3447 181.512 57.0967 181.112C57.8647 180.696 58.7367 180.488 59.7127 180.488C60.8487 180.488 61.8727 180.768 62.7847 181.328C63.7127 181.888 64.4407 182.688 64.9687 183.728C65.5127 184.752 65.7847 185.944 65.7847 187.304C65.7847 188.664 65.5127 189.872 64.9687 190.928C64.4407 191.968 63.7127 192.776 62.7847 193.352C61.8727 193.928 60.8487 194.216 59.7127 194.216C58.7367 194.216 57.8727 194.016 57.1207 193.616C56.3847 193.216 55.7847 192.712 55.3207 192.104V200.336H51.9607V180.704H55.3207V182.624ZM62.3527 187.304C62.3527 186.504 62.1847 185.816 61.8487 185.24C61.5287 184.648 61.0967 184.2 60.5527 183.896C60.0247 183.592 59.4487 183.44 58.8247 183.44C58.2167 183.44 57.6407 183.6 57.0967 183.92C56.5687 184.224 56.1367 184.672 55.8007 185.264C55.4807 185.856 55.3207 186.552 55.3207 187.352C55.3207 188.152 55.4807 188.848 55.8007 189.44C56.1367 190.032 56.5687 190.488 57.0967 190.808C57.6407 191.112 58.2167 191.264 58.8247 191.264C59.4487 191.264 60.0247 191.104 60.5527 190.784C61.0967 190.464 61.5287 190.008 61.8487 189.416C62.1847 188.824 62.3527 188.12 62.3527 187.304ZM72.1383 183.464V189.896C72.1383 190.344 72.2423 190.672 72.4503 190.88C72.6743 191.072 73.0423 191.168 73.5543 191.168H75.1143V194H73.0023C70.1703 194 68.7543 192.624 68.7543 189.872V183.464H67.1703V180.704H68.7543V177.416H72.1383V180.704H75.1143V183.464H72.1383ZM79.235 179.12C78.643 179.12 78.147 178.936 77.747 178.568C77.363 178.184 77.171 177.712 77.171 177.152C77.171 176.592 77.363 176.128 77.747 175.76C78.147 175.376 78.643 175.184 79.235 175.184C79.827 175.184 80.315 175.376 80.699 175.76C81.099 176.128 81.299 176.592 81.299 177.152C81.299 177.712 81.099 178.184 80.699 178.568C80.315 178.936 79.827 179.12 79.235 179.12ZM80.891 180.704V194H77.531V180.704H80.891ZM100.723 180.512C102.355 180.512 103.667 181.016 104.659 182.024C105.667 183.016 106.171 184.408 106.171 186.2V194H102.811V186.656C102.811 185.616 102.547 184.824 102.019 184.28C101.491 183.72 100.771 183.44 99.8587 183.44C98.9467 183.44 98.2187 183.72 97.6747 184.28C97.1467 184.824 96.8827 185.616 96.8827 186.656V194H93.5227V186.656C93.5227 185.616 93.2587 184.824 92.7307 184.28C92.2027 183.72 91.4827 183.44 90.5707 183.44C89.6427 183.44 88.9067 183.72 88.3627 184.28C87.8347 184.824 87.5707 185.616 87.5707 186.656V194H84.2107V180.704H87.5707V182.312C88.0027 181.752 88.5547 181.312 89.2267 180.992C89.9147 180.672 90.6667 180.512 91.4827 180.512C92.5227 180.512 93.4507 180.736 94.2667 181.184C95.0827 181.616 95.7147 182.24 96.1627 183.056C96.5947 182.288 97.2187 181.672 98.0347 181.208C98.8667 180.744 99.7627 180.512 100.723 180.512ZM111.063 179.12C110.471 179.12 109.975 178.936 109.575 178.568C109.191 178.184 108.999 177.712 108.999 177.152C108.999 176.592 109.191 176.128 109.575 175.76C109.975 175.376 110.471 175.184 111.063 175.184C111.655 175.184 112.143 175.376 112.527 175.76C112.927 176.128 113.127 176.592 113.127 177.152C113.127 177.712 112.927 178.184 112.527 178.568C112.143 178.936 111.655 179.12 111.063 179.12ZM112.719 180.704V194H109.359V180.704H112.719ZM119.111 191.24H125.039V194H115.295V191.288L121.103 183.464H115.319V180.704H124.967V183.416L119.111 191.24ZM140 187.064C140 187.544 139.968 187.976 139.904 188.36H130.184C130.264 189.32 130.6 190.072 131.192 190.616C131.784 191.16 132.512 191.432 133.376 191.432C134.624 191.432 135.512 190.896 136.04 189.824H139.664C139.28 191.104 138.544 192.16 137.456 192.992C136.368 193.808 135.032 194.216 133.448 194.216C132.168 194.216 131.016 193.936 129.992 193.376C128.984 192.8 128.192 191.992 127.616 190.952C127.056 189.912 126.776 188.712 126.776 187.352C126.776 185.976 127.056 184.768 127.616 183.728C128.176 182.688 128.96 181.888 129.968 181.328C130.976 180.768 132.136 180.488 133.448 180.488C134.712 180.488 135.84 180.76 136.832 181.304C137.84 181.848 138.616 182.624 139.16 183.632C139.72 184.624 140 185.768 140 187.064ZM136.52 186.104C136.504 185.24 136.192 184.552 135.584 184.04C134.976 183.512 134.232 183.248 133.352 183.248C132.52 183.248 131.816 183.504 131.24 184.016C130.68 184.512 130.336 185.208 130.208 186.104H136.52ZM160.532 187.064C160.532 187.544 160.5 187.976 160.436 188.36H150.716C150.796 189.32 151.132 190.072 151.724 190.616C152.316 191.16 153.044 191.432 153.908 191.432C155.156 191.432 156.044 190.896 156.572 189.824H160.196C159.812 191.104 159.076 192.16 157.988 192.992C156.9 193.808 155.564 194.216 153.98 194.216C152.7 194.216 151.548 193.936 150.524 193.376C149.516 192.8 148.724 191.992 148.148 190.952C147.588 189.912 147.308 188.712 147.308 187.352C147.308 185.976 147.588 184.768 148.148 183.728C148.708 182.688 149.492 181.888 150.5 181.328C151.508 180.768 152.668 180.488 153.98 180.488C155.244 180.488 156.372 180.76 157.364 181.304C158.372 181.848 159.148 182.624 159.692 183.632C160.252 184.624 160.532 185.768 160.532 187.064ZM157.052 186.104C157.036 185.24 156.724 184.552 156.116 184.04C155.508 183.512 154.764 183.248 153.884 183.248C153.052 183.248 152.348 183.504 151.772 184.016C151.212 184.512 150.868 185.208 150.74 186.104H157.052ZM162.12 187.304C162.12 185.96 162.384 184.768 162.912 183.728C163.456 182.688 164.192 181.888 165.12 181.328C166.048 180.768 167.08 180.488 168.216 180.488C169.08 180.488 169.904 180.68 170.688 181.064C171.472 181.432 172.096 181.928 172.56 182.552V176.24H175.968V194H172.56V192.032C172.144 192.688 171.56 193.216 170.808 193.616C170.056 194.016 169.184 194.216 168.192 194.216C167.072 194.216 166.048 193.928 165.12 193.352C164.192 192.776 163.456 191.968 162.912 190.928C162.384 189.872 162.12 188.664 162.12 187.304ZM172.584 187.352C172.584 186.536 172.424 185.84 172.104 185.264C171.784 184.672 171.352 184.224 170.808 183.92C170.264 183.6 169.68 183.44 169.056 183.44C168.432 183.44 167.856 183.592 167.328 183.896C166.8 184.2 166.368 184.648 166.032 185.24C165.712 185.816 165.552 186.504 165.552 187.304C165.552 188.104 165.712 188.808 166.032 189.416C166.368 190.008 166.8 190.464 167.328 190.784C167.872 191.104 168.448 191.264 169.056 191.264C169.68 191.264 170.264 191.112 170.808 190.808C171.352 190.488 171.784 190.04 172.104 189.464C172.424 188.872 172.584 188.168 172.584 187.352ZM180.954 179.12C180.362 179.12 179.866 178.936 179.466 178.568C179.082 178.184 178.89 177.712 178.89 177.152C178.89 176.592 179.082 176.128 179.466 175.76C179.866 175.376 180.362 175.184 180.954 175.184C181.546 175.184 182.034 175.376 182.418 175.76C182.818 176.128 183.018 176.592 183.018 177.152C183.018 177.712 182.818 178.184 182.418 178.568C182.034 178.936 181.546 179.12 180.954 179.12ZM182.61 180.704V194H179.25V180.704H182.61ZM193.297 180.512C194.881 180.512 196.161 181.016 197.137 182.024C198.113 183.016 198.601 184.408 198.601 186.2V194H195.241V186.656C195.241 185.6 194.977 184.792 194.449 184.232C193.921 183.656 193.201 183.368 192.289 183.368C191.361 183.368 190.625 183.656 190.081 184.232C189.553 184.792 189.289 185.6 189.289 186.656V194H185.929V180.704H189.289V182.36C189.737 181.784 190.305 181.336 190.993 181.016C191.697 180.68 192.465 180.512 193.297 180.512ZM205.469 190.472L202.661 197.216H200.501L202.061 190.472H205.469ZM226.161 180.704V194H222.777V192.32C222.345 192.896 221.777 193.352 221.073 193.688C220.385 194.008 219.633 194.168 218.817 194.168C217.777 194.168 216.857 193.952 216.057 193.52C215.257 193.072 214.625 192.424 214.161 191.576C213.713 190.712 213.489 189.688 213.489 188.504V180.704H216.849V188.024C216.849 189.08 217.113 189.896 217.641 190.472C218.169 191.032 218.889 191.312 219.801 191.312C220.729 191.312 221.457 191.032 221.985 190.472C222.513 189.896 222.777 189.08 222.777 188.024V180.704H226.161ZM217.665 179.12C217.217 179.12 216.841 178.968 216.537 178.664C216.233 178.36 216.081 177.984 216.081 177.536C216.081 177.088 216.233 176.712 216.537 176.408C216.841 176.088 217.217 175.928 217.665 175.928C218.113 175.928 218.489 176.088 218.793 176.408C219.113 176.712 219.273 177.088 219.273 177.536C219.273 177.984 219.113 178.36 218.793 178.664C218.489 178.968 218.113 179.12 217.665 179.12ZM222.105 179.12C221.657 179.12 221.281 178.968 220.977 178.664C220.673 178.36 220.521 177.984 220.521 177.536C220.521 177.088 220.673 176.712 220.977 176.408C221.281 176.088 221.657 175.928 222.105 175.928C222.553 175.928 222.929 176.088 223.233 176.408C223.553 176.712 223.713 177.088 223.713 177.536C223.713 177.984 223.553 178.36 223.233 178.664C222.929 178.968 222.553 179.12 222.105 179.12ZM232.836 182.768C233.268 182.064 233.828 181.512 234.516 181.112C235.22 180.712 236.02 180.512 236.916 180.512V184.04H236.028C234.972 184.04 234.172 184.288 233.628 184.784C233.1 185.28 232.836 186.144 232.836 187.376V194H229.476V180.704H232.836V182.768ZM251.539 187.064C251.539 187.544 251.507 187.976 251.443 188.36H241.723C241.803 189.32 242.139 190.072 242.731 190.616C243.323 191.16 244.051 191.432 244.915 191.432C246.163 191.432 247.051 190.896 247.579 189.824H251.203C250.819 191.104 250.083 192.16 248.995 192.992C247.907 193.808 246.571 194.216 244.987 194.216C243.707 194.216 242.555 193.936 241.531 193.376C240.523 192.8 239.731 191.992 239.155 190.952C238.595 189.912 238.315 188.712 238.315 187.352C238.315 185.976 238.595 184.768 239.155 183.728C239.715 182.688 240.499 181.888 241.507 181.328C242.515 180.768 243.675 180.488 244.987 180.488C246.251 180.488 247.379 180.76 248.371 181.304C249.379 181.848 250.155 182.624 250.699 183.632C251.259 184.624 251.539 185.768 251.539 187.064ZM248.059 186.104C248.043 185.24 247.731 184.552 247.123 184.04C246.515 183.512 245.771 183.248 244.891 183.248C244.059 183.248 243.355 183.504 242.779 184.016C242.219 184.512 241.875 185.208 241.747 186.104H248.059ZM257.904 183.464V189.896C257.904 190.344 258.008 190.672 258.216 190.88C258.44 191.072 258.808 191.168 259.32 191.168H260.88V194H258.768C255.936 194 254.52 192.624 254.52 189.872V183.464H252.936V180.704H254.52V177.416H257.904V180.704H260.88V183.464H257.904ZM271.169 194L266.657 188.336V194H263.297V176.24H266.657V186.344L271.121 180.704H275.489L269.633 187.376L275.537 194H271.169ZM289.672 187.064C289.672 187.544 289.64 187.976 289.576 188.36H279.856C279.936 189.32 280.272 190.072 280.864 190.616C281.456 191.16 282.184 191.432 283.048 191.432C284.296 191.432 285.184 190.896 285.712 189.824H289.336C288.952 191.104 288.216 192.16 287.128 192.992C286.04 193.808 284.704 194.216 283.12 194.216C281.84 194.216 280.688 193.936 279.664 193.376C278.656 192.8 277.864 191.992 277.288 190.952C276.728 189.912 276.448 188.712 276.448 187.352C276.448 185.976 276.728 184.768 277.288 183.728C277.848 182.688 278.632 181.888 279.64 181.328C280.648 180.768 281.808 180.488 283.12 180.488C284.384 180.488 285.512 180.76 286.504 181.304C287.512 181.848 288.288 182.624 288.832 183.632C289.392 184.624 289.672 185.768 289.672 187.064ZM286.192 186.104C286.176 185.24 285.864 184.552 285.256 184.04C284.648 183.512 283.904 183.248 283.024 183.248C282.192 183.248 281.488 183.504 280.912 184.016C280.352 184.512 280.008 185.208 279.88 186.104H286.192ZM299.493 180.512C301.077 180.512 302.357 181.016 303.333 182.024C304.309 183.016 304.797 184.408 304.797 186.2V194H301.437V186.656C301.437 185.6 301.173 184.792 300.645 184.232C300.117 183.656 299.397 183.368 298.485 183.368C297.557 183.368 296.821 183.656 296.277 184.232C295.749 184.792 295.485 185.6 295.485 186.656V194H292.125V180.704H295.485V182.36C295.933 181.784 296.501 181.336 297.189 181.016C297.893 180.68 298.661 180.512 299.493 180.512ZM311.352 176.24V194H307.992V176.24H311.352ZM316.376 179.12C315.784 179.12 315.288 178.936 314.888 178.568C314.504 178.184 314.312 177.712 314.312 177.152C314.312 176.592 314.504 176.128 314.888 175.76C315.288 175.376 315.784 175.184 316.376 175.184C316.968 175.184 317.456 175.376 317.84 175.76C318.24 176.128 318.44 176.592 318.44 177.152C318.44 177.712 318.24 178.184 317.84 178.568C317.456 178.936 316.968 179.12 316.376 179.12ZM318.032 180.704V194H314.672V180.704H318.032ZM326.559 180.488C327.551 180.488 328.423 180.688 329.175 181.088C329.927 181.472 330.519 181.976 330.951 182.6V180.704H334.335V194.096C334.335 195.328 334.087 196.424 333.591 197.384C333.095 198.36 332.351 199.128 331.359 199.688C330.367 200.264 329.167 200.552 327.759 200.552C325.871 200.552 324.319 200.112 323.103 199.232C321.903 198.352 321.223 197.152 321.063 195.632H324.399C324.575 196.24 324.951 196.72 325.527 197.072C326.119 197.44 326.831 197.624 327.663 197.624C328.639 197.624 329.431 197.328 330.039 196.736C330.647 196.16 330.951 195.28 330.951 194.096V192.032C330.519 192.656 329.919 193.176 329.151 193.592C328.399 194.008 327.535 194.216 326.559 194.216C325.439 194.216 324.415 193.928 323.487 193.352C322.559 192.776 321.823 191.968 321.279 190.928C320.751 189.872 320.487 188.664 320.487 187.304C320.487 185.96 320.751 184.768 321.279 183.728C321.823 182.688 322.551 181.888 323.463 181.328C324.391 180.768 325.423 180.488 326.559 180.488ZM330.951 187.352C330.951 186.536 330.791 185.84 330.471 185.264C330.151 184.672 329.719 184.224 329.175 183.92C328.631 183.6 328.047 183.44 327.423 183.44C326.799 183.44 326.223 183.592 325.695 183.896C325.167 184.2 324.735 184.648 324.399 185.24C324.079 185.816 323.919 186.504 323.919 187.304C323.919 188.104 324.079 188.808 324.399 189.416C324.735 190.008 325.167 190.464 325.695 190.784C326.239 191.104 326.815 191.264 327.423 191.264C328.047 191.264 328.631 191.112 329.175 190.808C329.719 190.488 330.151 190.04 330.471 189.464C330.791 188.872 330.951 188.168 330.951 187.352ZM331.719 175.952C331.719 177.104 331.375 178.008 330.687 178.664C329.999 179.32 329.063 179.648 327.879 179.648C326.727 179.648 325.799 179.32 325.095 178.664C324.407 177.992 324.063 177.08 324.063 175.928V175.448H325.839C325.839 175.992 325.991 176.408 326.295 176.696C326.599 176.968 327.127 177.104 327.879 177.104C328.631 177.104 329.159 176.968 329.463 176.696C329.767 176.408 329.919 175.992 329.919 175.448H331.719V175.952ZM339.321 179.12C338.729 179.12 338.233 178.936 337.833 178.568C337.449 178.184 337.257 177.712 337.257 177.152C337.257 176.592 337.449 176.128 337.833 175.76C338.233 175.376 338.729 175.184 339.321 175.184C339.913 175.184 340.401 175.376 340.785 175.76C341.185 176.128 341.385 176.592 341.385 177.152C341.385 177.712 341.185 178.184 340.785 178.568C340.401 178.936 339.913 179.12 339.321 179.12ZM340.977 180.704V194H337.617V180.704H340.977ZM349.151 187.304C349.151 185.96 349.415 184.768 349.943 183.728C350.487 182.688 351.215 181.888 352.127 181.328C353.055 180.768 354.087 180.488 355.223 180.488C356.215 180.488 357.079 180.688 357.815 181.088C358.567 181.488 359.167 181.992 359.615 182.6V180.704H362.999V194H359.615V192.056C359.183 192.68 358.583 193.2 357.815 193.616C357.063 194.016 356.191 194.216 355.199 194.216C354.079 194.216 353.055 193.928 352.127 193.352C351.215 192.776 350.487 191.968 349.943 190.928C349.415 189.872 349.151 188.664 349.151 187.304ZM359.615 187.352C359.615 186.536 359.455 185.84 359.135 185.264C358.815 184.672 358.383 184.224 357.839 183.92C357.295 183.6 356.711 183.44 356.087 183.44C355.463 183.44 354.887 183.592 354.359 183.896C353.831 184.2 353.399 184.648 353.063 185.24C352.743 185.816 352.583 186.504 352.583 187.304C352.583 188.104 352.743 188.808 353.063 189.416C353.399 190.008 353.831 190.464 354.359 190.784C354.903 191.104 355.479 191.264 356.087 191.264C356.711 191.264 357.295 191.112 357.839 190.808C358.383 190.488 358.815 190.04 359.135 189.464C359.455 188.872 359.615 188.168 359.615 187.352ZM369.641 182.768C370.073 182.064 370.633 181.512 371.321 181.112C372.025 180.712 372.825 180.512 373.721 180.512V184.04H372.833C371.777 184.04 370.977 184.288 370.433 184.784C369.905 185.28 369.641 186.144 369.641 187.376V194H366.281V180.704H369.641V182.768ZM379.896 183.464V189.896C379.896 190.344 380 190.672 380.208 190.88C380.432 191.072 380.8 191.168 381.312 191.168H382.872V194H380.76C377.928 194 376.512 192.624 376.512 189.872V183.464H374.928V180.704H376.512V177.416H379.896V180.704H382.872V183.464H379.896ZM388.793 180.704V194H385.433V180.704H388.793ZM395.61 182.768C396.042 182.064 396.602 181.512 397.29 181.112C397.994 180.712 398.794 180.512 399.69 180.512V184.04H398.802C397.746 184.04 396.946 184.288 396.402 184.784C395.874 185.28 395.61 186.144 395.61 187.376V194H392.25V180.704H395.61V182.768ZM405.457 180.704V194H402.097V180.704H405.457ZM416.282 180.512C417.866 180.512 419.146 181.016 420.122 182.024C421.098 183.016 421.586 184.408 421.586 186.2V194H418.226V186.656C418.226 185.6 417.962 184.792 417.434 184.232C416.906 183.656 416.186 183.368 415.274 183.368C414.346 183.368 413.61 183.656 413.066 184.232C412.538 184.792 412.274 185.6 412.274 186.656V194H408.914V180.704H412.274V182.36C412.722 181.784 413.29 181.336 413.978 181.016C414.682 180.68 415.45 180.512 416.282 180.512ZM436.044 190.904L439.404 180.704H442.98L438.06 194H433.98L429.084 180.704H432.684L436.044 190.904ZM457.227 187.064C457.227 187.544 457.195 187.976 457.131 188.36H447.411C447.491 189.32 447.827 190.072 448.419 190.616C449.011 191.16 449.739 191.432 450.603 191.432C451.851 191.432 452.739 190.896 453.267 189.824H456.891C456.507 191.104 455.771 192.16 454.683 192.992C453.595 193.808 452.259 194.216 450.675 194.216C449.395 194.216 448.243 193.936 447.219 193.376C446.211 192.8 445.419 191.992 444.843 190.952C444.283 189.912 444.003 188.712 444.003 187.352C444.003 185.976 444.283 184.768 444.843 183.728C445.403 182.688 446.187 181.888 447.195 181.328C448.203 180.768 449.363 180.488 450.675 180.488C451.939 180.488 453.067 180.76 454.059 181.304C455.067 181.848 455.843 182.624 456.387 183.632C456.947 184.624 457.227 185.768 457.227 187.064ZM453.747 186.104C453.731 185.24 453.419 184.552 452.811 184.04C452.203 183.512 451.459 183.248 450.579 183.248C449.747 183.248 449.043 183.504 448.467 184.016C447.907 184.512 447.563 185.208 447.435 186.104H453.747ZM44.144 204.512C45.152 204.512 46.048 204.736 46.832 205.184C47.616 205.616 48.224 206.264 48.656 207.128C49.104 207.976 49.328 209 49.328 210.2V218H45.968V210.656C45.968 209.6 45.704 208.792 45.176 208.232C44.648 207.656 43.928 207.368 43.016 207.368C42.088 207.368 41.352 207.656 40.808 208.232C40.28 208.792 40.016 209.6 40.016 210.656V218H36.656V200.24H40.016V206.36C40.448 205.784 41.024 205.336 41.744 205.016C42.464 204.68 43.264 204.512 44.144 204.512ZM64.8832 211.064C64.8832 211.544 64.8512 211.976 64.7872 212.36H55.0672C55.1472 213.32 55.4832 214.072 56.0752 214.616C56.6672 215.16 57.3952 215.432 58.2592 215.432C59.5072 215.432 60.3952 214.896 60.9232 213.824H64.5472C64.1632 215.104 63.4272 216.16 62.3392 216.992C61.2512 217.808 59.9152 218.216 58.3312 218.216C57.0512 218.216 55.8992 217.936 54.8752 217.376C53.8672 216.8 53.0752 215.992 52.4992 214.952C51.9392 213.912 51.6592 212.712 51.6592 211.352C51.6592 209.976 51.9392 208.768 52.4992 207.728C53.0592 206.688 53.8432 205.888 54.8512 205.328C55.8592 204.768 57.0192 204.488 58.3312 204.488C59.5952 204.488 60.7232 204.76 61.7152 205.304C62.7232 205.848 63.4992 206.624 64.0432 207.632C64.6032 208.624 64.8832 209.768 64.8832 211.064ZM61.4032 210.104C61.3872 209.24 61.0752 208.552 60.4672 208.04C59.8592 207.512 59.1152 207.248 58.2352 207.248C57.4032 207.248 56.6992 207.504 56.1232 208.016C55.5632 208.512 55.2192 209.208 55.0912 210.104H61.4032ZM66.4717 211.304C66.4717 209.96 66.7357 208.768 67.2637 207.728C67.8077 206.688 68.5437 205.888 69.4717 205.328C70.3997 204.768 71.4317 204.488 72.5677 204.488C73.4317 204.488 74.2557 204.68 75.0397 205.064C75.8237 205.432 76.4477 205.928 76.9117 206.552V200.24H80.3197V218H76.9117V216.032C76.4957 216.688 75.9117 217.216 75.1597 217.616C74.4077 218.016 73.5357 218.216 72.5437 218.216C71.4237 218.216 70.3997 217.928 69.4717 217.352C68.5437 216.776 67.8077 215.968 67.2637 214.928C66.7357 213.872 66.4717 212.664 66.4717 211.304ZM76.9357 211.352C76.9357 210.536 76.7757 209.84 76.4557 209.264C76.1357 208.672 75.7037 208.224 75.1597 207.92C74.6157 207.6 74.0317 207.44 73.4077 207.44C72.7837 207.44 72.2077 207.592 71.6797 207.896C71.1517 208.2 70.7197 208.648 70.3837 209.24C70.0637 209.816 69.9037 210.504 69.9037 211.304C69.9037 212.104 70.0637 212.808 70.3837 213.416C70.7197 214.008 71.1517 214.464 71.6797 214.784C72.2237 215.104 72.7997 215.264 73.4077 215.264C74.0317 215.264 74.6157 215.112 75.1597 214.808C75.7037 214.488 76.1357 214.04 76.4557 213.464C76.7757 212.872 76.9357 212.168 76.9357 211.352ZM95.9613 211.064C95.9613 211.544 95.9293 211.976 95.8653 212.36H86.1453C86.2253 213.32 86.5613 214.072 87.1533 214.616C87.7453 215.16 88.4733 215.432 89.3373 215.432C90.5853 215.432 91.4733 214.896 92.0013 213.824H95.6253C95.2413 215.104 94.5053 216.16 93.4173 216.992C92.3293 217.808 90.9933 218.216 89.4093 218.216C88.1293 218.216 86.9773 217.936 85.9533 217.376C84.9453 216.8 84.1533 215.992 83.5773 214.952C83.0173 213.912 82.7373 212.712 82.7373 211.352C82.7373 209.976 83.0173 208.768 83.5773 207.728C84.1373 206.688 84.9213 205.888 85.9293 205.328C86.9373 204.768 88.0973 204.488 89.4093 204.488C90.6733 204.488 91.8013 204.76 92.7933 205.304C93.8013 205.848 94.5773 206.624 95.1213 207.632C95.6813 208.624 95.9613 209.768 95.9613 211.064ZM92.4813 210.104C92.4653 209.24 92.1533 208.552 91.5453 208.04C90.9373 207.512 90.1933 207.248 89.3133 207.248C88.4813 207.248 87.7773 207.504 87.2013 208.016C86.6413 208.512 86.2973 209.208 86.1693 210.104H92.4813ZM104.51 207.464H102.182V218H98.7738V207.464H97.2618V204.704H98.7738V204.032C98.7738 202.4 99.2378 201.2 100.166 200.432C101.094 199.664 102.494 199.304 104.366 199.352V202.184C103.55 202.168 102.982 202.304 102.662 202.592C102.342 202.88 102.182 203.4 102.182 204.152V204.704H104.51V207.464ZM110.047 200.24V218H106.687V200.24H110.047ZM125.727 211.064C125.727 211.544 125.695 211.976 125.631 212.36H115.911C115.991 213.32 116.327 214.072 116.919 214.616C117.511 215.16 118.239 215.432 119.103 215.432C120.351 215.432 121.239 214.896 121.767 213.824H125.391C125.007 215.104 124.271 216.16 123.183 216.992C122.095 217.808 120.759 218.216 119.175 218.216C117.895 218.216 116.743 217.936 115.719 217.376C114.711 216.8 113.919 215.992 113.343 214.952C112.783 213.912 112.503 212.712 112.503 211.352C112.503 209.976 112.783 208.768 113.343 207.728C113.903 206.688 114.687 205.888 115.695 205.328C116.703 204.768 117.863 204.488 119.175 204.488C120.439 204.488 121.567 204.76 122.559 205.304C123.567 205.848 124.343 206.624 124.887 207.632C125.447 208.624 125.727 209.768 125.727 211.064ZM122.247 210.104C122.231 209.24 121.919 208.552 121.311 208.04C120.703 207.512 119.959 207.248 119.079 207.248C118.247 207.248 117.543 207.504 116.967 208.016C116.407 208.512 116.063 209.208 115.935 210.104H122.247ZM131.539 206.768C131.971 206.064 132.531 205.512 133.219 205.112C133.923 204.712 134.723 204.512 135.619 204.512V208.04H134.731C133.675 208.04 132.875 208.288 132.331 208.784C131.803 209.28 131.539 210.144 131.539 211.376V218H128.179V204.704H131.539V206.768ZM139.587 203.12C138.995 203.12 138.499 202.936 138.099 202.568C137.715 202.184 137.523 201.712 137.523 201.152C137.523 200.592 137.715 200.128 138.099 199.76C138.499 199.376 138.995 199.184 139.587 199.184C140.179 199.184 140.667 199.376 141.051 199.76C141.451 200.128 141.651 200.592 141.651 201.152C141.651 201.712 141.451 202.184 141.051 202.568C140.667 202.936 140.179 203.12 139.587 203.12ZM141.243 204.704V218H137.883V204.704H141.243ZM151.93 204.512C153.514 204.512 154.794 205.016 155.77 206.024C156.746 207.016 157.234 208.408 157.234 210.2V218H153.874V210.656C153.874 209.6 153.61 208.792 153.082 208.232C152.554 207.656 151.834 207.368 150.922 207.368C149.994 207.368 149.258 207.656 148.714 208.232C148.186 208.792 147.922 209.6 147.922 210.656V218H144.562V204.704H147.922V206.36C148.37 205.784 148.938 205.336 149.626 205.016C150.33 204.68 151.098 204.512 151.93 204.512ZM162.133 203.12C161.541 203.12 161.045 202.936 160.645 202.568C160.261 202.184 160.069 201.712 160.069 201.152C160.069 200.592 160.261 200.128 160.645 199.76C161.045 199.376 161.541 199.184 162.133 199.184C162.725 199.184 163.213 199.376 163.597 199.76C163.997 200.128 164.197 200.592 164.197 201.152C164.197 201.712 163.997 202.184 163.597 202.568C163.213 202.936 162.725 203.12 162.133 203.12ZM163.789 204.704V218H160.429V204.704H163.789ZM170.181 215.24H176.109V218H166.365V215.288L172.173 207.464H166.389V204.704H176.037V207.416L170.181 215.24ZM191.071 211.064C191.071 211.544 191.039 211.976 190.975 212.36H181.255C181.335 213.32 181.671 214.072 182.263 214.616C182.855 215.16 183.583 215.432 184.447 215.432C185.695 215.432 186.583 214.896 187.111 213.824H190.735C190.351 215.104 189.615 216.16 188.527 216.992C187.439 217.808 186.103 218.216 184.519 218.216C183.239 218.216 182.087 217.936 181.063 217.376C180.055 216.8 179.263 215.992 178.687 214.952C178.127 213.912 177.847 212.712 177.847 211.352C177.847 209.976 178.127 208.768 178.687 207.728C179.247 206.688 180.031 205.888 181.039 205.328C182.047 204.768 183.207 204.488 184.519 204.488C185.783 204.488 186.911 204.76 187.903 205.304C188.911 205.848 189.687 206.624 190.231 207.632C190.791 208.624 191.071 209.768 191.071 211.064ZM187.591 210.104C187.575 209.24 187.263 208.552 186.655 208.04C186.047 207.512 185.303 207.248 184.423 207.248C183.591 207.248 182.887 207.504 182.311 208.016C181.751 208.512 181.407 209.208 181.279 210.104H187.591ZM207.114 218L202.602 212.336V218H199.242V200.24H202.602V210.344L207.066 204.704H211.434L205.578 211.376L211.482 218H207.114ZM219.162 218.216C217.882 218.216 216.73 217.936 215.706 217.376C214.682 216.8 213.874 215.992 213.282 214.952C212.706 213.912 212.418 212.712 212.418 211.352C212.418 209.992 212.714 208.792 213.306 207.752C213.914 206.712 214.738 205.912 215.778 205.352C216.818 204.776 217.978 204.488 219.258 204.488C220.538 204.488 221.698 204.776 222.738 205.352C223.778 205.912 224.594 206.712 225.186 207.752C225.794 208.792 226.098 209.992 226.098 211.352C226.098 212.712 225.786 213.912 225.162 214.952C224.554 215.992 223.722 216.8 222.666 217.376C221.626 217.936 220.458 218.216 219.162 218.216ZM219.162 215.288C219.77 215.288 220.338 215.144 220.866 214.856C221.41 214.552 221.842 214.104 222.162 213.512C222.482 212.92 222.642 212.2 222.642 211.352C222.642 210.088 222.306 209.12 221.634 208.448C220.978 207.76 220.17 207.416 219.21 207.416C218.25 207.416 217.442 207.76 216.786 208.448C216.146 209.12 215.826 210.088 215.826 211.352C215.826 212.616 216.138 213.592 216.762 214.28C217.402 214.952 218.202 215.288 219.162 215.288ZM231.922 200.24V218H228.562V200.24H231.922ZM234.378 211.304C234.378 209.96 234.642 208.768 235.17 207.728C235.714 206.688 236.442 205.888 237.354 205.328C238.282 204.768 239.314 204.488 240.45 204.488C241.442 204.488 242.306 204.688 243.042 205.088C243.794 205.488 244.394 205.992 244.842 206.6V204.704H248.226V218H244.842V216.056C244.41 216.68 243.81 217.2 243.042 217.616C242.29 218.016 241.418 218.216 240.426 218.216C239.306 218.216 238.282 217.928 237.354 217.352C236.442 216.776 235.714 215.968 235.17 214.928C234.642 213.872 234.378 212.664 234.378 211.304ZM244.842 211.352C244.842 210.536 244.682 209.84 244.362 209.264C244.042 208.672 243.61 208.224 243.066 207.92C242.522 207.6 241.938 207.44 241.314 207.44C240.69 207.44 240.114 207.592 239.586 207.896C239.058 208.2 238.626 208.648 238.29 209.24C237.97 209.816 237.81 210.504 237.81 211.304C237.81 212.104 237.97 212.808 238.29 213.416C238.626 214.008 239.058 214.464 239.586 214.784C240.13 215.104 240.706 215.264 241.314 215.264C241.938 215.264 242.522 215.112 243.066 214.808C243.61 214.488 244.042 214.04 244.362 213.464C244.682 212.872 244.842 212.168 244.842 211.352ZM264.228 204.704L255.996 224.288H252.42L255.3 217.664L249.972 204.704H253.74L257.172 213.992L260.652 204.704H264.228ZM265.175 211.352C265.175 209.976 265.455 208.776 266.015 207.752C266.575 206.712 267.351 205.912 268.343 205.352C269.335 204.776 270.471 204.488 271.751 204.488C273.399 204.488 274.759 204.904 275.831 205.736C276.919 206.552 277.647 207.704 278.015 209.192H274.391C274.199 208.616 273.871 208.168 273.407 207.848C272.959 207.512 272.399 207.344 271.727 207.344C270.767 207.344 270.007 207.696 269.447 208.4C268.887 209.088 268.607 210.072 268.607 211.352C268.607 212.616 268.887 213.6 269.447 214.304C270.007 214.992 270.767 215.336 271.727 215.336C273.087 215.336 273.975 214.728 274.391 213.512H278.015C277.647 214.952 276.919 216.096 275.831 216.944C274.743 217.792 273.383 218.216 271.751 218.216C270.471 218.216 269.335 217.936 268.343 217.376C267.351 216.8 266.575 216 266.015 214.976C265.455 213.936 265.175 212.728 265.175 211.352ZM279.612 211.304C279.612 209.96 279.876 208.768 280.404 207.728C280.948 206.688 281.676 205.888 282.588 205.328C283.516 204.768 284.548 204.488 285.684 204.488C286.676 204.488 287.54 204.688 288.276 205.088C289.028 205.488 289.628 205.992 290.076 206.6V204.704H293.46V218H290.076V216.056C289.644 216.68 289.044 217.2 288.276 217.616C287.524 218.016 286.652 218.216 285.66 218.216C284.54 218.216 283.516 217.928 282.588 217.352C281.676 216.776 280.948 215.968 280.404 214.928C279.876 213.872 279.612 212.664 279.612 211.304ZM290.076 211.352C290.076 210.536 289.916 209.84 289.596 209.264C289.276 208.672 288.844 208.224 288.3 207.92C287.756 207.6 287.172 207.44 286.548 207.44C285.924 207.44 285.348 207.592 284.82 207.896C284.292 208.2 283.86 208.648 283.524 209.24C283.204 209.816 283.044 210.504 283.044 211.304C283.044 212.104 283.204 212.808 283.524 213.416C283.86 214.008 284.292 214.464 284.82 214.784C285.364 215.104 285.94 215.264 286.548 215.264C287.172 215.264 287.756 215.112 288.3 214.808C288.844 214.488 289.276 214.04 289.596 213.464C289.916 212.872 290.076 212.168 290.076 211.352ZM315.013 204.704V218H311.629V216.32C311.197 216.896 310.629 217.352 309.925 217.688C309.237 218.008 308.485 218.168 307.669 218.168C306.629 218.168 305.709 217.952 304.909 217.52C304.109 217.072 303.477 216.424 303.013 215.576C302.565 214.712 302.341 213.688 302.341 212.504V204.704H305.701V212.024C305.701 213.08 305.965 213.896 306.493 214.472C307.021 215.032 307.741 215.312 308.653 215.312C309.581 215.312 310.309 215.032 310.837 214.472C311.365 213.896 311.629 213.08 311.629 212.024V204.704H315.013ZM321.688 200.24V218H318.328V200.24H321.688ZM324.144 211.304C324.144 209.96 324.408 208.768 324.936 207.728C325.48 206.688 326.208 205.888 327.12 205.328C328.048 204.768 329.08 204.488 330.216 204.488C331.208 204.488 332.072 204.688 332.808 205.088C333.56 205.488 334.16 205.992 334.608 206.6V204.704H337.992V218H334.608V216.056C334.176 216.68 333.576 217.2 332.808 217.616C332.056 218.016 331.184 218.216 330.192 218.216C329.072 218.216 328.048 217.928 327.12 217.352C326.208 216.776 325.48 215.968 324.936 214.928C324.408 213.872 324.144 212.664 324.144 211.304ZM334.608 211.352C334.608 210.536 334.448 209.84 334.128 209.264C333.808 208.672 333.376 208.224 332.832 207.92C332.288 207.6 331.704 207.44 331.08 207.44C330.456 207.44 329.88 207.592 329.352 207.896C328.824 208.2 328.392 208.648 328.056 209.24C327.736 209.816 327.576 210.504 327.576 211.304C327.576 212.104 327.736 212.808 328.056 213.416C328.392 214.008 328.824 214.464 329.352 214.784C329.896 215.104 330.472 215.264 331.08 215.264C331.704 215.264 332.288 215.112 332.832 214.808C333.376 214.488 333.808 214.04 334.128 213.464C334.448 212.872 334.608 212.168 334.608 211.352ZM347.417 219.08C348.297 219.08 349.033 219.304 349.625 219.752C350.233 220.2 350.537 220.848 350.537 221.696C350.537 222.56 350.225 223.224 349.601 223.688C348.993 224.152 348.241 224.384 347.345 224.384H343.937V222.416H346.793C347.177 222.416 347.465 222.36 347.657 222.248C347.865 222.136 347.969 221.936 347.969 221.648C347.969 221.36 347.865 221.16 347.657 221.048C347.465 220.952 347.177 220.904 346.793 220.904H345.305V218.144C343.929 217.968 342.809 217.48 341.945 216.68C341.081 215.88 340.617 214.92 340.553 213.8H343.937C344.001 214.312 344.249 214.736 344.681 215.072C345.129 215.408 345.681 215.576 346.337 215.576C346.977 215.576 347.473 215.448 347.825 215.192C348.193 214.936 348.377 214.608 348.377 214.208C348.377 213.776 348.153 213.456 347.705 213.248C347.273 213.024 346.577 212.784 345.617 212.528C344.625 212.288 343.809 212.04 343.169 211.784C342.545 211.528 342.001 211.136 341.537 210.608C341.089 210.08 340.865 209.368 340.865 208.472C340.865 207.736 341.073 207.064 341.489 206.456C341.921 205.848 342.529 205.368 343.313 205.016C344.113 204.664 345.049 204.488 346.121 204.488C347.705 204.488 348.969 204.888 349.913 205.688C350.857 206.472 351.377 207.536 351.473 208.88H348.257C348.209 208.352 347.985 207.936 347.585 207.632C347.201 207.312 346.681 207.152 346.025 207.152C345.417 207.152 344.945 207.264 344.609 207.488C344.289 207.712 344.129 208.024 344.129 208.424C344.129 208.872 344.353 209.216 344.801 209.456C345.249 209.68 345.945 209.912 346.889 210.152C347.849 210.392 348.641 210.64 349.265 210.896C349.889 211.152 350.425 211.552 350.873 212.096C351.337 212.624 351.577 213.328 351.593 214.208C351.593 215.232 351.217 216.104 350.465 216.824C349.729 217.544 348.713 217.984 347.417 218.144V219.08ZM357.855 204.704V218H354.495V204.704H357.855ZM368.68 204.512C370.264 204.512 371.544 205.016 372.52 206.024C373.496 207.016 373.984 208.408 373.984 210.2V218H370.624V210.656C370.624 209.6 370.36 208.792 369.832 208.232C369.304 207.656 368.584 207.368 367.672 207.368C366.744 207.368 366.008 207.656 365.464 208.232C364.936 208.792 364.672 209.6 364.672 210.656V218H361.312V204.704H364.672V206.36C365.12 205.784 365.688 205.336 366.376 205.016C367.08 204.68 367.848 204.512 368.68 204.512Z" fill="white"/>
<defs>
<clipPath id="clip0_64_288">
<rect width="227" height="63" fill="white" transform="translate(35 32)"/>
</clipPath>
</defs>
</svg>
