<svg width="60" height="60" viewBox="0 0 60 60" fill="none" xmlns="http://www.w3.org/2000/svg">
<circle cx="30" cy="30" r="30" fill="#317EF2"/>
<path d="M31.6667 20.0007C31.6667 19.5586 31.8423 19.1347 32.1548 18.8221C32.4674 18.5096 32.8913 18.334 33.3333 18.334H40.2667L38.2167 15.9673C38.0766 15.8304 37.9665 15.6659 37.8933 15.4843C37.82 15.3027 37.7852 15.1078 37.7911 14.9121C37.7969 14.7163 37.8433 14.5239 37.9273 14.347C38.0112 14.17 38.131 14.0124 38.279 13.8841C38.4269 13.7558 38.5999 13.6596 38.7869 13.6015C38.9739 13.5434 39.171 13.5247 39.3656 13.5466C39.5602 13.5685 39.7482 13.6306 39.9176 13.7288C40.0871 13.827 40.2343 13.9593 40.35 14.1173L44.65 19.1173C44.6894 19.169 44.7229 19.2249 44.75 19.284C44.8043 19.3617 44.8491 19.4456 44.8833 19.534C44.8909 19.6171 44.8909 19.7008 44.8833 19.784C44.9278 19.959 44.9278 20.1423 44.8833 20.3173C44.8909 20.4005 44.8909 20.4842 44.8833 20.5673C44.8491 20.6557 44.8043 20.7396 44.75 20.8173C44.7229 20.8764 44.6894 20.9323 44.65 20.984L40.35 25.984C40.2343 26.142 40.0871 26.2743 39.9176 26.3725C39.7482 26.4707 39.5602 26.5328 39.3656 26.5547C39.171 26.5766 38.9739 26.5579 38.7869 26.4998C38.5999 26.4417 38.4269 26.3455 38.279 26.2172C38.131 26.0889 38.0112 25.9313 37.9273 25.7543C37.8433 25.5774 37.7969 25.385 37.7911 25.1892C37.7852 24.9935 37.82 24.7986 37.8933 24.617C37.9665 24.4354 38.0766 24.2709 38.2167 24.134L40.2667 21.6673H33.3333C32.8913 21.6673 32.4674 21.4917 32.1548 21.1792C31.8423 20.8666 31.6667 20.4427 31.6667 20.0007ZM28.3333 17.5007V22.5007C28.3333 23.6057 27.8943 24.6655 27.1129 25.4469C26.3315 26.2283 25.2717 26.6673 24.1667 26.6673H19.1667C18.0616 26.6673 17.0018 26.2283 16.2204 25.4469C15.439 24.6655 15 23.6057 15 22.5007V17.5007C15 16.3956 15.439 15.3358 16.2204 14.5544C17.0018 13.773 18.0616 13.334 19.1667 13.334H24.1667C25.2717 13.334 26.3315 13.773 27.1129 14.5544C27.8943 15.3358 28.3333 16.3956 28.3333 17.5007ZM25 17.5007C25 17.2796 24.9122 17.0677 24.7559 16.9114C24.5996 16.7551 24.3877 16.6673 24.1667 16.6673H19.1667C18.9457 16.6673 18.7337 16.7551 18.5774 16.9114C18.4211 17.0677 18.3333 17.2796 18.3333 17.5007V22.5007C18.3333 22.7217 18.4211 22.9336 18.5774 23.0899C18.7337 23.2462 18.9457 23.334 19.1667 23.334H24.1667C24.3877 23.334 24.5996 23.2462 24.7559 23.0899C24.9122 22.9336 25 22.7217 25 22.5007V17.5007ZM26.6667 36.6673H19.7333L21.7833 34.3007C21.9234 34.1637 22.0335 33.9993 22.1067 33.8176C22.18 33.636 22.2148 33.4412 22.2089 33.2454C22.2031 33.0496 22.1567 32.8572 22.0727 32.6803C21.9888 32.5034 21.869 32.3458 21.721 32.2175C21.5731 32.0891 21.4001 31.9929 21.2131 31.9348C21.0261 31.8767 20.829 31.8581 20.6344 31.88C20.4398 31.9019 20.2518 31.9639 20.0824 32.0621C19.9129 32.1604 19.7657 32.2927 19.65 32.4507L15.35 37.4506C15.3106 37.5024 15.2771 37.5583 15.25 37.6173C15.1957 37.695 15.1509 37.7789 15.1167 37.8673C15.1091 37.9505 15.1091 38.0342 15.1167 38.1173C15.0722 38.2923 15.0722 38.4757 15.1167 38.6507C15.1091 38.7338 15.1091 38.8175 15.1167 38.9007C15.1509 38.989 15.1957 39.073 15.25 39.1507C15.2771 39.2097 15.3106 39.2656 15.35 39.3173L19.65 44.3173C19.7657 44.4753 19.9129 44.6076 20.0824 44.7058C20.2518 44.8041 20.4398 44.8661 20.6344 44.888C20.829 44.9099 21.0261 44.8912 21.2131 44.8332C21.4001 44.7751 21.5731 44.6788 21.721 44.5505C21.869 44.4222 21.9888 44.2646 22.0727 44.0877C22.1567 43.9108 22.2031 43.7183 22.2089 43.5226C22.2148 43.3268 22.18 43.132 22.1067 42.9503C22.0335 42.7687 21.9234 42.6042 21.7833 42.4673L19.7333 40.0007H26.6667C27.1087 40.0007 27.5326 39.8251 27.8452 39.5125C28.1577 39.1999 28.3333 38.776 28.3333 38.334C28.3333 37.892 28.1577 37.468 27.8452 37.1555C27.5326 36.8429 27.1087 36.6673 26.6667 36.6673ZM45 35.834V40.834C45 41.9391 44.561 42.9989 43.7796 43.7803C42.9982 44.5617 41.9384 45.0007 40.8333 45.0007H35.8333C34.7283 45.0007 33.6685 44.5617 32.8871 43.7803C32.1057 42.9989 31.6667 41.9391 31.6667 40.834V35.834C31.6667 34.7289 32.1057 33.6691 32.8871 32.8877C33.6685 32.1063 34.7283 31.6673 35.8333 31.6673H40.8333C41.9384 31.6673 42.9982 32.1063 43.7796 32.8877C44.561 33.6691 45 34.7289 45 35.834ZM41.6667 35.834C41.6667 35.613 41.5789 35.401 41.4226 35.2447C41.2663 35.0884 41.0543 35.0007 40.8333 35.0007H35.8333C35.6123 35.0007 35.4004 35.0884 35.2441 35.2447C35.0878 35.401 35 35.613 35 35.834V40.834C35 41.055 35.0878 41.267 35.2441 41.4232C35.4004 41.5795 35.6123 41.6673 35.8333 41.6673H40.8333C41.0543 41.6673 41.2663 41.5795 41.4226 41.4232C41.5789 41.267 41.6667 41.055 41.6667 40.834V35.834Z" fill="black"/>
</svg>
