<svg width="50" height="52" viewBox="0 0 50 52" fill="none" xmlns="http://www.w3.org/2000/svg">
<path d="M35.8571 31.263C35.7679 31.254 35.6607 31.254 35.5625 31.263C33.4375 31.1912 31.75 29.443 31.75 27.2912C31.75 25.0947 33.5179 23.3105 35.7143 23.3105C37.9018 23.3105 39.6786 25.0947 39.6786 27.2912C39.6696 29.443 37.9821 31.1912 35.8571 31.263Z" stroke="#292D32" stroke-width="1.5" stroke-linecap="round" stroke-linejoin="round"/>
<path d="M31.3928 34.5711C29.2321 36.0235 29.2321 38.3904 31.3928 39.8339C33.8482 41.4835 37.875 41.4835 40.3303 39.8339C42.4911 38.3814 42.4911 36.0145 40.3303 34.5711C37.8839 32.9304 33.8571 32.9304 31.3928 34.5711Z" stroke="#292D32" stroke-width="1.5" stroke-linecap="round" stroke-linejoin="round"/>
<path d="M19.6428 6.66147V12.0408C19.6428 13.3856 19.1964 14.5063 18.4107 15.2953C17.6339 16.0753 16.5178 16.5235 15.1786 16.5235V18.4332C15.1786 19.1504 14.3839 19.5808 13.7946 19.1863L9.82142 16.5235H7.92857C8 16.2546 8.03571 15.9766 8.03571 15.6898C8.03571 14.7753 7.68749 13.9325 7.11606 13.296C6.47321 12.5608 5.51785 12.1035 4.46428 12.1035C3.46428 12.1035 2.55357 12.516 1.90178 13.1884C1.82142 12.8298 1.78571 12.4442 1.78571 12.0408V6.66147C1.78571 3.97181 3.57142 2.17871 6.24999 2.17871H15.1786C17.8571 2.17871 19.6428 3.97181 19.6428 6.66147Z" stroke="#292D32" stroke-width="1.5" stroke-miterlimit="10" stroke-linecap="round" stroke-linejoin="round"/>
<path d="M8.03571 15.6897C8.03571 15.9766 8 16.2545 7.92857 16.5235C7.84821 16.8821 7.70536 17.2318 7.51786 17.5366C6.90179 18.5766 5.76785 19.2759 4.46428 19.2759C3.54464 19.2759 2.71428 18.9262 2.08928 18.3525C1.82142 18.1194 1.58927 17.8414 1.4107 17.5366C1.08034 16.9987 0.892853 16.3621 0.892853 15.6897C0.892853 14.7214 1.27679 13.8339 1.90179 13.1884C2.55357 12.5159 3.46428 12.1035 4.46428 12.1035C5.51785 12.1035 6.47321 12.5608 7.11607 13.2959C7.6875 13.9325 8.03571 14.7752 8.03571 15.6897Z" stroke="#292D32" stroke-width="1.5" stroke-miterlimit="10" stroke-linecap="round" stroke-linejoin="round"/>
<path d="M5.79464 15.6716H3.13394" stroke="#292D32" stroke-width="1.5" stroke-miterlimit="10" stroke-linecap="round" stroke-linejoin="round"/>
<path d="M4.46429 14.3628V17.0435" stroke="#292D32" stroke-width="1.5" stroke-miterlimit="10" stroke-linecap="round" stroke-linejoin="round"/>
<path d="M7.58929 9.41382H13.8393" stroke="#292D32" stroke-width="1.5" stroke-miterlimit="10" stroke-linecap="round" stroke-linejoin="round"/>
<path d="M42.4911 12.9104V16.5593C42.4911 16.882 42.4554 17.1869 42.375 17.4648C42.0447 18.7827 40.9554 19.6076 39.4554 19.6076H37.0268L34.3304 21.4097C33.9286 21.6876 33.3929 21.3917 33.3929 20.9076V19.6076C32.4821 19.6076 31.7232 19.3028 31.1964 18.7738C30.6607 18.2359 30.3571 17.4738 30.3571 16.5593V12.9104C30.3571 11.2069 31.4107 10.0324 33.0357 9.88001C33.1518 9.87104 33.2679 9.86206 33.3929 9.86206H39.4554C41.2768 9.86206 42.4911 11.0814 42.4911 12.9104Z" stroke="#292D32" stroke-width="1.5" stroke-miterlimit="10" stroke-linecap="round" stroke-linejoin="round"/>
<path d="M20.7738 32.3805C20.625 32.3655 20.4464 32.3655 20.2827 32.3805C16.7411 32.2609 13.9286 29.3472 13.9286 25.7609C13.9286 22.1 16.875 19.1265 20.5357 19.1265C24.1815 19.1265 27.1428 22.1 27.1428 25.7609C27.128 29.3472 24.3155 32.2609 20.7738 32.3805Z" stroke="#292D32" stroke-width="1.5" stroke-linecap="round" stroke-linejoin="round"/>
<path d="M13.3333 37.8944C9.73215 40.3151 9.73215 44.2599 13.3333 46.6656C17.4256 49.4151 24.1369 49.4151 28.2292 46.6656C31.8304 44.2449 31.8304 40.3001 28.2292 37.8944C24.1518 35.1599 17.4405 35.1599 13.3333 37.8944Z" stroke="#292D32" stroke-width="1.5" stroke-linecap="round" stroke-linejoin="round"/>
</svg>
